<svg preserveAspectRatio="none" width="100%" height="100%" overflow="visible" style="display: block;" viewBox="0 0 24.1947 28" fill="none" xmlns="http://www.w3.org/2000/svg">
<g id="News AP">
<path id="Fill-1" d="M0 25.0844H24.1946V0H0V25.0844Z" fill="var(--fill-0, white)"/>
<path id="Fill-2" d="M2.03451e-05 25.0843V28H24.1947V25.0843H2.03451e-05Z" fill="var(--fill-0, #FF322E)"/>
<path id="Fill-3" d="M13.4219 6.61142V18.8285H16.3512V9.07537H17.5285C18.8973 9.07537 19.6776 9.72558 19.6776 10.9096C19.6776 12.0663 18.8973 12.7439 17.5285 12.7439H17.3368V15.2079H17.6517C20.8137 15.2079 22.6617 13.62 22.6617 10.9096C22.6617 8.15139 20.8069 6.61142 17.6517 6.61142H13.4219ZM5.57829 6.61142L1.50592 18.8285H4.45582L7.22092 10.191L8.61032 14.5098H6.81711L6.09845 16.9737H9.39741L9.99287 18.8285H13.0249L8.95253 6.61142H5.57829Z" fill="var(--fill-0, black)"/>
</g>
</svg>
