<svg preserveAspectRatio="none" width="100%" height="100%" overflow="visible" style="display: block;" viewBox="0 0 28 28.0001" fill="none" xmlns="http://www.w3.org/2000/svg">
<g id="Group">
<path id="Vector" d="M13.9999 18.9863C16.7537 18.9863 18.9862 16.7539 18.9862 14C18.9862 11.2462 16.7537 9.01371 13.9999 9.01371C11.246 9.01371 9.01357 11.2462 9.01357 14C9.01357 16.7539 11.246 18.9863 13.9999 18.9863Z" fill="var(--fill-0, #E60505)"/>
<g id="h">
<path id="q" d="M18.9862 19.7535C18.9862 21.0759 18.4609 22.3442 17.5258 23.2793C16.5907 24.2144 15.3224 24.7398 13.9999 24.7398C12.6775 24.7398 11.4092 24.2144 10.4741 23.2793C9.53897 22.3442 9.01363 21.0759 9.01363 19.7535H18.9862ZM19.7534 19.7535H24.484C24.484 21.0081 23.9856 22.2113 23.0984 23.0985C22.2112 23.9857 21.008 24.4841 19.7534 24.4841V19.7535ZM18.3182 25.5069C17.8806 26.2649 17.2511 26.8944 16.4931 27.332C15.7351 27.7697 14.8752 28.0001 13.9999 28.0001C13.1247 28.0001 12.2648 27.7697 11.5068 27.332C10.7488 26.8944 10.1193 26.2649 9.68167 25.5069H18.3182Z" fill="var(--fill-0, #E60505)"/>
<path id="q_2" d="M8.24658 18.9863C6.92413 18.9863 5.65585 18.461 4.72073 17.5259C3.78562 16.5908 3.26028 15.3225 3.26028 14C3.26028 12.6776 3.78562 11.4093 4.72073 10.4742C5.65585 9.53906 6.92413 9.01372 8.24658 9.01372V18.9863ZM8.24658 19.7534L8.24658 24.484C6.99195 24.484 5.78871 23.9856 4.90155 23.0985C4.01439 22.2113 3.51599 21.0081 3.51599 19.7534H8.24658ZM2.49316 18.3183C1.73514 17.8806 1.10568 17.2512 0.668043 16.4932C0.230403 15.7352 4.47896e-06 14.8753 4.47896e-06 14C4.47896e-06 13.1247 0.230403 12.2649 0.668043 11.5069C1.10568 10.7489 1.73514 10.1194 2.49316 9.68175L2.49316 18.3183Z" fill="var(--fill-0, #E60505)"/>
</g>
<g id="h_2">
<path id="q_3" d="M9.01352 8.24658C9.01352 6.92413 9.53886 5.65584 10.474 4.72073C11.4091 3.78562 12.6774 3.26028 13.9998 3.26028C15.3223 3.26028 16.5906 3.78562 17.5257 4.72073C18.4608 5.65584 18.9861 6.92413 18.9861 8.24658L9.01352 8.24658ZM8.2464 8.24658H3.51581C3.51581 6.99195 4.01421 5.7887 4.90136 4.90154C5.78852 4.01438 6.99177 3.51598 8.2464 3.51598V8.24658ZM9.68156 2.49315C10.1192 1.73514 10.7487 1.10568 11.5067 0.668038C12.2647 0.230398 13.1245 -2.89416e-07 13.9998 -2.89416e-07C14.8751 -2.89416e-07 15.735 0.230398 16.493 0.668038C17.251 1.10568 17.8805 1.73514 18.3181 2.49315L9.68156 2.49315Z" fill="var(--fill-0, #E60505)"/>
<path id="q_4" d="M19.7535 9.01373C21.0759 9.01373 22.3442 9.53907 23.2793 10.4742C24.2144 11.4093 24.7398 12.6776 24.7398 14C24.7398 15.3225 24.2144 16.5908 23.2793 17.5259C22.3442 18.461 21.0759 18.9863 19.7535 18.9863L19.7535 9.01373ZM19.7535 8.24661V3.51601C21.0081 3.51601 22.2113 4.01441 23.0985 4.90157C23.9857 5.78873 24.4841 6.99198 24.4841 8.24661H19.7535ZM25.5069 9.68177C26.2649 10.1194 26.8944 10.7489 27.332 11.5069C27.7696 12.2649 28 13.1248 28 14C28 14.8753 27.7696 15.7352 27.332 16.4932C26.8944 17.2512 26.2649 17.8807 25.5069 18.3183V9.68177Z" fill="var(--fill-0, #E60505)"/>
</g>
</g>
</svg>
