<svg preserveAspectRatio="none" width="100%" height="100%" overflow="visible" style="display: block;" viewBox="0 0 28 28" fill="none" xmlns="http://www.w3.org/2000/svg">
<g id="News Independent" clip-path="url(#clip0_8093_96749)">
<path id="Vector" d="M14.0001 0C12.1614 -2.73986e-08 10.3407 0.362157 8.64198 1.06579C6.94325 1.76943 5.39975 2.80077 4.0996 4.10092C2.79944 5.40107 1.76811 6.94457 1.06447 8.6433C0.360835 10.342 -0.00132243 12.1627 -0.00132243 14.0014C-0.00132243 15.8401 0.360835 17.6608 1.06447 19.3595C1.76811 21.0582 2.79944 22.6018 4.0996 23.9019C5.39975 25.2021 6.94325 26.2334 8.64198 26.937C10.3407 27.6407 12.1614 28.0028 14.0001 28.0028C17.7135 28.0028 21.2748 26.5277 23.9006 23.9019C26.5264 21.2761 28.0015 17.7148 28.0015 14.0014C28.0015 10.288 26.5264 6.72669 23.9006 4.10092C21.2748 1.47514 17.7135 5.53341e-08 14.0001 0Z" fill="var(--fill-0, #EB1426)"/>
<path id="Vector_2" d="M22.0973 19.4651C21.8205 19.3097 21.9052 19.3606 20.5722 18.5698C20.5722 18.5698 19.5554 18.7646 18.2365 19.0499C18.2558 19.0561 18.2747 19.0637 18.293 19.0725C18.3129 19.085 18.3318 19.0992 18.3495 19.1148C18.3698 19.1301 18.3887 19.1471 18.4059 19.1657C18.4363 19.2028 18.4602 19.2448 18.4765 19.29C18.4829 19.3112 18.4877 19.3329 18.4907 19.3549L18.4963 19.3832V19.4114C18.4969 19.4295 18.495 19.4475 18.4907 19.4651C18.4896 19.4767 18.4868 19.4882 18.4822 19.499L18.4709 19.5272H18.437C18.4336 19.518 18.4307 19.5085 18.4285 19.499C18.4264 19.4875 18.4236 19.4762 18.4201 19.4651L18.4059 19.4283C18.4002 19.4138 18.3936 19.3997 18.3862 19.386L18.3636 19.3408L18.3353 19.2956L18.3043 19.2504C18.2958 19.2335 18.2788 19.2222 18.2647 19.2109L18.2252 19.1742C18.2111 19.16 18.1998 19.1516 18.1856 19.1459C18.173 19.1358 18.1598 19.1263 18.1461 19.1177C18.1352 19.1104 18.1239 19.1038 18.1122 19.0979C18.1031 19.0927 18.0936 19.088 18.084 19.0838L17.8015 19.1459C17.8102 19.147 17.8187 19.1489 17.827 19.1516C17.8473 19.1597 17.8671 19.1691 17.8863 19.1798C17.9074 19.1909 17.9273 19.2041 17.9456 19.2193C17.9649 19.2347 17.9829 19.2517 17.9992 19.2702C18.015 19.2898 18.0291 19.3105 18.0416 19.3323C18.0527 19.3522 18.0621 19.373 18.0698 19.3945C18.076 19.4158 18.0807 19.4375 18.084 19.4594V19.5159C18.0859 19.5328 18.0859 19.5498 18.084 19.5667C18.0819 19.5794 18.0781 19.5918 18.0727 19.6034C18.0694 19.613 18.0656 19.6225 18.0614 19.6317H18.0303L18.019 19.6034C18.0171 19.5919 18.0142 19.5806 18.0105 19.5696L17.9964 19.5328L17.9766 19.4905L17.9541 19.4453C17.9454 19.4298 17.936 19.4147 17.9258 19.4001L17.8947 19.3549C17.8863 19.338 17.8693 19.3267 17.858 19.3154L17.8185 19.2787C17.8072 19.2645 17.7902 19.2589 17.7761 19.2504C17.7643 19.2404 17.7521 19.231 17.7394 19.2222L17.7027 19.2024C17.6936 19.1971 17.6841 19.1924 17.6744 19.1883L17.6547 19.177L16.9034 18.5387L16.9317 18.3466L16.8526 17.9004L16.9288 17.7084V17.0701L16.1098 17.8016L16.0872 17.779L18.4907 14.9518L18.4709 14.901L17.7676 14.7767L17.7705 14.7428H19.0301C19.16 14.9067 19.4396 14.9518 19.643 14.8954L19.6515 14.8671L19.3973 14.4604L19.5018 14.3898C19.6034 14.3305 19.6938 14.3559 19.7927 14.5C19.8859 14.6355 19.9311 14.8106 19.8209 14.918L19.8407 14.9462C20.0054 14.924 20.1552 14.839 20.2587 14.709C20.3999 14.5226 20.3773 14.2373 20.2022 14.0311C20.0525 13.8617 19.7842 13.5934 19.7842 13.5934C19.8124 13.2714 19.643 12.9918 19.3323 12.8647C18.6545 12.5936 18.1376 12.3987 18.1376 12.3987L16.5024 12.3959L16.4967 12.3591L18.1235 12.1671L18.6121 11.7378L20.4592 11.0007C20.5187 10.9774 20.5723 10.9412 20.6162 10.8949C20.6601 10.8485 20.6933 10.793 20.7134 10.7324C20.9534 10.0743 21.6906 8.10294 21.6906 8.10294L23.9698 5.02729L23.9528 4.99905L22.456 6.06663L22.4362 6.04404L23.0717 4.77311L23.0434 4.75616L22.0634 6.16266L22.0352 6.15136L22.1481 4.74769L22.1142 4.73922L21.7584 6.16831H21.7245L21.1483 4.73639L21.1144 4.74769L21.5381 6.45356L21.4872 7.25566L21.4562 7.25848L21.363 6.55241L20.3547 4.83807L20.3265 4.85501L21.137 6.66821L21.1992 8.00409H21.1653L20.9902 6.75858L19.6684 5.08378L19.643 5.10355L20.784 6.85461L20.8574 8.6904L20.8264 8.69322L20.5948 6.95628L19.1261 5.41987L19.1007 5.44246L20.3491 7.07208L20.4959 9.18465H20.462L20.1259 7.1794L18.6008 5.87176L18.5782 5.89718L19.8972 7.32344L20.1231 9.52639L20.0892 9.53486L19.643 7.45901L18.0981 6.40555L18.0783 6.43379L19.4001 7.60305L19.7588 9.7834L19.7249 9.79187L19.1516 7.75556L17.6829 6.95064L17.6632 6.97888L18.9228 7.8996L19.3351 10.0122L19.3041 10.0206L18.646 8.08318L17.2649 7.55786L17.2508 7.59175L18.4088 8.24981L18.8889 10.1788L18.8578 10.1901L18.1263 8.45881L16.8187 8.22157L16.8102 8.25546L17.8919 8.64238L18.4483 10.3257L18.4201 10.3398L17.5841 8.90504L16.4854 8.81467L16.4798 8.84856L17.3412 9.13099L17.9908 10.4923L17.9625 10.5121L17.0588 9.41624L16.0646 9.47555L16.0618 9.50944L16.8526 9.6563L17.5728 10.7154L17.5502 10.738L16.6097 9.96133L15.5478 10.1986L15.5534 10.2353H16.4233L17.2226 10.9894L17.2056 11.0176L16.2369 10.5657L15.1269 10.7352V10.7719L16.1154 10.8114L16.9543 11.3424L16.943 11.3735L16.0194 11.0572L14.5282 11.3396L14.531 11.3735L15.929 11.3424L16.782 11.735L16.7707 11.7632L15.8782 11.5542L13.6272 11.9327V11.9637L15.3924 12.0993L15.3981 12.1304L13.9831 12.3846V12.4156L14.949 12.4721V12.506L13.8447 12.7941L14.3164 13.4098L14.2881 13.438L13.2149 12.5258L10.4414 8.6791L7.91936 7.38558L5.91694 5.58368L5.30971 3.92582L5.27582 3.93429L5.49612 5.8068L6.46767 7.36581L6.43943 7.3884L5.02728 6.21632L4.3551 4.91715L4.31839 4.92562L4.55563 6.45074L5.24475 7.7019L5.22216 7.72167L4.09809 6.8066L3.51629 5.93389L3.4824 5.94801L3.75353 7.12857L4.4709 8.18485L4.44831 8.20744L3.33271 7.56633L2.84128 6.94499L2.80739 6.96193L3.12654 7.87983L3.64338 8.52941L3.62644 8.55201L3.11242 8.45316L3.09829 8.48705L4.19412 9.51509L4.18282 9.54616L3.23104 9.48967L3.22256 9.53768L4.58387 10.3793L4.57822 10.4104L3.94558 10.4612L3.94276 10.4951L5.51871 11.0967V11.1249L4.90302 11.3396L4.90866 11.3763L8.71298 11.6559V11.6841L6.59476 11.7011L6.5524 12.136L9.20723 12.0937V12.1276L7.30649 12.3309L7.22176 12.8477L9.80598 12.4919L9.81445 12.523L7.79791 12.9861L7.76684 13.5849L10.4217 12.8562L10.433 12.8901L8.24415 13.7459L8.25545 14.291L10.9385 13.1754L10.9498 13.2036L8.78641 14.37L8.85984 14.9292L11.4864 13.5934L11.5034 13.6216L9.35692 14.9829L9.47836 15.4574L12.0118 14.065L12.0287 14.0933L10.063 15.4066L10.2522 15.9121L12.3422 14.6638L12.362 14.692L10.9894 15.7088L11.2294 16.1889L12.2462 15.5675L12.2631 15.5901L11.8818 15.9206L12.0711 16.3019L12.297 16.2199L12.6161 16.107L12.7913 16.042C12.8195 16.0335 12.8477 16.0166 12.876 16.0053C12.9042 15.994 12.9325 15.9771 12.9607 15.9601C13.0145 15.9266 13.0655 15.8888 13.1132 15.8471L13.1499 15.8189L13.181 15.785C13.203 15.7636 13.2237 15.741 13.2431 15.7172C13.2657 15.6975 13.2827 15.672 13.2996 15.6494L13.3505 15.5817C13.3674 15.5591 13.3787 15.5336 13.39 15.5111L13.4267 15.4433C13.4449 15.4037 13.461 15.3632 13.4747 15.3218C13.4889 15.2851 13.4973 15.2512 13.503 15.223L13.5199 15.158L13.5256 15.1354L13.5595 15.1411V15.1637L13.5482 15.2314C13.5453 15.2597 13.5369 15.2964 13.5227 15.3359C13.512 15.3809 13.4988 15.4252 13.4832 15.4687L13.4521 15.5421L13.4154 15.6184C13.4041 15.6466 13.3844 15.6692 13.3674 15.6975L13.3137 15.7765L13.2544 15.8528L13.2205 15.8895L13.1838 15.9234C13.1348 15.9727 13.0819 16.0181 13.0257 16.059L12.9409 16.1155L12.8477 16.1663C12.6841 16.2382 12.5203 16.3097 12.3563 16.3809L9.43317 17.4739L7.51831 20.4762L7.63128 20.5524L9.76644 18.0727L9.79468 18.0925L8.52375 19.9621L9.30326 19.8407L10.4782 18.1038L10.5064 18.1207L9.65065 19.804L10.385 19.756L11.1786 18.1292L11.2125 18.1433L10.673 19.739L11.4158 19.6882L11.879 18.1602L11.9157 18.1659L11.6559 19.6628L12.4128 19.5159L12.5766 18.1405H12.6133V19.4481L13.1754 19.1318L13.0906 18.1433L13.1245 18.1376L13.3222 19.0414L13.5227 19.1544L13.6724 19.5611L13.8927 19.6373L14.339 19.9988L14.5084 20.1344L14.5056 20.1429L14.4943 20.1627L14.2034 20.0356C13.1203 20.3322 12.0423 20.6467 10.9696 20.9789H10.9752L12.0682 21.6059L12.6049 21.9165L12.8534 22.0578L12.9127 22.0916L12.9409 22.1058L12.9551 22.1142L12.9635 22.1171V22.1199L12.972 22.1255C13.0087 22.1492 13.0428 22.1766 13.0737 22.2074C13.1304 22.2619 13.1722 22.33 13.1951 22.4051C13.2107 22.4631 13.2145 22.5236 13.2064 22.5831C13.2012 22.6198 13.1917 22.6558 13.1782 22.6904L13.1641 22.7271L13.1273 22.713L13.1386 22.6763C13.147 22.6439 13.1517 22.6108 13.1528 22.5774C13.157 22.5258 13.1503 22.4738 13.133 22.4249C13.1091 22.3636 13.0703 22.3093 13.02 22.2668C12.9908 22.2413 12.9585 22.2195 12.924 22.2018L12.9155 22.1961L12.8986 22.1905L12.8703 22.1792L12.8082 22.151C12.7235 22.1142 12.6387 22.0747 12.5455 22.038L11.9779 21.7838L11.6135 21.6256L10.7747 21.8939C10.416 22.0069 10.4386 22.487 10.7775 22.6113C11.2842 22.805 11.7935 22.9914 12.3055 23.1705C12.486 23.2406 12.6796 23.2703 12.8728 23.2576C13.066 23.245 13.2541 23.1902 13.4239 23.0971L14.7654 22.487C15.7172 21.9815 17.0588 20.9026 17.0588 20.9026L17.0813 20.9252L16.0364 21.9222C16.7453 21.603 17.4344 21.3037 17.8919 21.1201C18.4327 20.8457 18.9528 20.5323 19.4481 20.1824L19.4707 20.205L18.7533 20.8546C19.5667 20.6993 20.9026 20.5722 21.6256 20.5722C22.5859 20.575 22.6057 19.7475 22.0973 19.4651ZM19.6656 13.76C19.7927 13.8843 19.9254 14.0029 20.0553 14.1272C20.0696 14.1442 20.0828 14.1621 20.0949 14.1808C20.102 14.1898 20.1086 14.1992 20.1146 14.2091L20.1288 14.2373C20.1387 14.2564 20.1472 14.2762 20.1542 14.2966C20.1599 14.3169 20.1636 14.3377 20.1655 14.3587C20.1696 14.3801 20.1715 14.4019 20.1711 14.4237C20.1718 14.434 20.1718 14.4444 20.1711 14.4548C20.1711 14.4661 20.1655 14.4774 20.1626 14.4858C20.1579 14.5071 20.1513 14.5279 20.1429 14.548C20.1429 14.5564 20.1344 14.5677 20.1288 14.5762L20.1146 14.6016L20.0864 14.5847L20.0977 14.5564C20.1021 14.5483 20.1059 14.5398 20.109 14.531C20.1142 14.5135 20.118 14.4955 20.1203 14.4774C20.1209 14.468 20.1209 14.4585 20.1203 14.4491V14.4209C20.1192 14.4028 20.1164 14.3848 20.1118 14.3672C20.1069 14.3497 20.1003 14.3326 20.092 14.3164C20.085 14.2997 20.0765 14.2836 20.0666 14.2684C20.0624 14.2605 20.0577 14.253 20.0525 14.2458C20.0473 14.2379 20.0416 14.2304 20.0356 14.2232C20.0241 14.2102 20.0118 14.1979 19.9988 14.1865C19.8576 14.082 19.7164 13.9718 19.5695 13.8673L19.6656 13.76ZM18.8945 13.4154C18.8981 13.3891 18.9077 13.3639 18.9228 13.342L18.9313 13.3307C18.9352 13.3245 18.94 13.3188 18.9454 13.3138L18.9708 13.294C18.9813 13.2861 18.9927 13.2795 19.0047 13.2742L19.0132 13.2686L19.0527 13.2629H19.0612L19.0838 13.3053L19.0781 13.3109C19.0694 13.3201 19.0599 13.3286 19.0499 13.3364C19.0494 13.3393 19.0484 13.3422 19.0471 13.3448L19.0386 13.3589L19.0301 13.3731C19.0305 13.3759 19.0305 13.3787 19.0301 13.3815L19.0245 13.3928C19.024 13.3956 19.024 13.3985 19.0245 13.4013V13.4098C19.0239 13.4145 19.0239 13.4192 19.0245 13.4239V13.4296C19.0236 13.4352 19.0236 13.4409 19.0245 13.4465C19.0251 13.4534 19.027 13.4601 19.0301 13.4663V13.4719L19.0414 13.486C19.0424 13.4902 19.0443 13.494 19.0471 13.4973C19.0507 13.4992 19.0536 13.5022 19.0555 13.5058C19.0608 13.5088 19.0656 13.5126 19.0696 13.5171H19.0753L19.0866 13.5256C19.0983 13.5304 19.1107 13.5333 19.1233 13.5341C19.1358 13.5342 19.1482 13.5323 19.16 13.5284L19.177 13.5228L19.1826 13.5199L19.1939 13.5115C19.1992 13.5085 19.204 13.5047 19.208 13.5002L19.2165 13.4917C19.2189 13.4892 19.2208 13.4864 19.2222 13.4832L19.225 13.4747C19.2281 13.4722 19.2309 13.4694 19.2335 13.4663L19.2391 13.4493C19.2418 13.443 19.2437 13.4363 19.2448 13.4296V13.4183C19.2441 13.4089 19.2441 13.3994 19.2448 13.39V13.3815L19.2843 13.3646L19.2899 13.3731C19.2974 13.3838 19.304 13.3952 19.3097 13.407L19.3154 13.4183C19.3195 13.4301 19.3224 13.4425 19.3238 13.455V13.4832C19.3232 13.4928 19.3213 13.5023 19.3182 13.5115V13.5199C19.3125 13.5466 19.3009 13.5717 19.2843 13.5934C19.2662 13.6171 19.2431 13.6364 19.2165 13.6498L19.2109 13.6583L19.1996 13.6611L19.1939 13.664L19.1713 13.6724C19.1558 13.6776 19.1396 13.6804 19.1233 13.6809H19.1064C19.0753 13.6799 19.0446 13.6732 19.016 13.6611L19.0047 13.6555C18.9926 13.6492 18.9813 13.6416 18.9708 13.6329C18.9637 13.6279 18.9571 13.6222 18.951 13.616C18.9438 13.61 18.9372 13.6034 18.9313 13.5962C18.9195 13.5827 18.91 13.5675 18.903 13.551L18.8917 13.5256V13.5171L18.8889 13.5086V13.5002C18.8855 13.4863 18.8836 13.4721 18.8832 13.4578C18.8848 13.4432 18.8886 13.4289 18.8945 13.4154ZM18.8465 14.3474C18.8547 14.3211 18.8671 14.2963 18.8832 14.274C18.89 14.264 18.8976 14.2546 18.9058 14.2458L18.9171 14.2373L18.9228 14.2317H18.9284L18.9341 14.2232C18.957 14.2087 18.9817 14.1973 19.0075 14.1893C19.0429 14.177 19.0812 14.175 19.1177 14.1836C19.1293 14.185 19.1406 14.1879 19.1516 14.1921L19.1798 14.2034C19.1876 14.2087 19.1951 14.2143 19.2024 14.2204C19.2102 14.2256 19.2178 14.2312 19.225 14.2373L19.2419 14.2571L19.2561 14.274L19.2617 14.2881L19.273 14.3164L19.2476 14.339C19.2388 14.3338 19.2303 14.3281 19.2222 14.322L19.2109 14.3164L19.1967 14.3107C19.1867 14.3069 19.1763 14.3041 19.1657 14.3023C19.1565 14.2992 19.147 14.2973 19.1374 14.2966H19.1261C19.1196 14.2954 19.1129 14.2954 19.1064 14.2966H19.0838C19.0701 14.2999 19.0569 14.3046 19.0442 14.3107C19.0314 14.3149 19.019 14.3206 19.0075 14.3277L19.0019 14.3333L18.9906 14.3446C18.9851 14.3485 18.9803 14.3532 18.9764 14.3587C18.9671 14.3683 18.9586 14.3787 18.951 14.3898C18.9482 14.3955 18.9482 14.4039 18.9426 14.4096C18.9395 14.4158 18.9376 14.4225 18.9369 14.4294C18.9321 14.4412 18.9283 14.4535 18.9256 14.4661C18.9243 14.4783 18.9243 14.4906 18.9256 14.5028V14.5169L18.9284 14.531C18.931 14.5403 18.9329 14.5497 18.9341 14.5593L18.9143 14.5734C18.9054 14.5673 18.8969 14.5607 18.8889 14.5536L18.8776 14.5395L18.8663 14.5226L18.855 14.5028C18.8516 14.4945 18.8488 14.486 18.8465 14.4774L18.8381 14.4491V14.4181C18.8376 14.3942 18.8404 14.3705 18.8465 14.3474ZM6.24173 6.30105L6.28409 6.27281L7.41098 7.7725L9.26089 8.65933L9.23547 8.71017L7.24718 7.94478L6.24173 6.30105ZM4.43418 7.55221L4.4709 7.51267L5.67687 8.64803L8.12271 9.43883L8.10576 9.48967L5.51871 8.83161L4.43418 7.55221ZM3.81284 8.21027L3.84673 8.17638L5.1459 9.23266L8.03798 10.0235L8.02386 10.0799L5.01881 9.43036L3.81284 8.21027ZM4.04443 9.77492L4.06138 9.72409L8.06339 10.5488L8.0521 10.6053L5.08659 10.1534L4.04443 9.77492ZM8.31758 11.1673L6.21066 10.9752L5.1459 10.6646L5.16003 10.6109L8.32323 11.1136L8.31758 11.1673ZM8.40231 8.9926L6.26997 8.2837L5.38597 7.06643L5.42268 7.03536L6.4479 8.12554L8.42773 8.94458L8.40231 8.9926ZM8.67344 9.75798L8.63673 9.74103L8.63955 9.28067L8.68474 9.27502L8.73558 9.55181L9.67606 9.07168L9.69866 9.11122L8.67344 9.75798ZM8.80336 10.4725L8.80901 10.0122L8.8542 10.0065L8.90503 10.2833L10.1477 9.62524L10.1675 9.66195L8.84007 10.4895L8.80336 10.4725ZM9.19876 11.1278L9.15922 11.1052L9.16769 10.6448L9.21006 10.6392L9.26089 10.9188L10.5742 10.207L10.5968 10.2438L9.19876 11.1278ZM9.72125 11.6644L9.68171 11.6474L9.68736 11.1842L9.73255 11.1814L9.78339 11.461L11.0684 10.7888L11.091 10.8256L9.72125 11.6644ZM10.3765 12.1304L10.3426 12.1106L10.3482 11.6531L10.3934 11.6446L10.4443 11.9242L11.574 11.3339L11.6022 11.3706L10.3765 12.1304ZM11.0826 12.5766L11.0487 12.5597L11.0571 12.1078L11.0967 12.0993L11.1503 12.3733L12.088 11.8931L12.1106 11.9299L11.0826 12.5766ZM11.7773 13.0031L11.7406 12.9861L11.7491 12.5456H11.7915L11.8423 12.7997L12.5116 12.4834L12.5342 12.5201L11.7773 13.0031ZM12.3478 13.4324L12.3168 13.4126L12.3337 13.0454H12.3733L12.4156 13.2375L12.8929 13.0285L12.9127 13.0624L12.3478 13.4324ZM12.78 13.8956L12.7461 13.873L12.7856 13.5369L12.828 13.5425L12.8449 13.7063L13.4267 13.4493L13.4493 13.486L12.78 13.8956ZM13.1273 14.9405L13.0963 14.918L13.1415 14.6525H13.181L13.1895 14.7541L13.4663 14.6412L13.4889 14.6779L13.1273 14.9405ZM13.0172 14.3842L12.9833 14.3616L13.0257 14.0961H13.068L13.0822 14.2006L13.4917 14.0029L13.5143 14.0368L13.0172 14.3842ZM11.4356 17.5219L11.413 17.5022L11.478 17.3807L11.3537 17.3271L11.3593 17.296H11.6813L11.6898 17.3242L11.4356 17.5219ZM12.3394 17.5219L12.3168 17.5022L12.3817 17.3807L12.2575 17.3271L12.2631 17.296H12.5851L12.5964 17.3242L12.3394 17.5219ZM12.5766 22.7751L12.2518 22.6622L11.927 22.5548L11.2774 22.3487L11.2718 22.3458C11.2606 22.3426 11.2502 22.3372 11.2413 22.3298C11.2323 22.3225 11.2249 22.3133 11.2196 22.303C11.2143 22.2927 11.2112 22.2814 11.2105 22.2698C11.2097 22.2582 11.2114 22.2466 11.2153 22.2357C11.2193 22.2224 11.2266 22.2102 11.2365 22.2004C11.2463 22.1905 11.2585 22.1832 11.2718 22.1792L11.9411 21.9956L11.9524 22.0239L11.5119 22.2555L11.9637 22.456C12.0711 22.5012 12.1727 22.552 12.2744 22.5972L12.5851 22.7441L12.5766 22.7751ZM16.0081 17.0927L15.9799 17.0757L16.0392 16.9091L15.8697 16.8667V16.8385L16.2651 16.7707L16.2793 16.7989L16.0081 17.0927ZM15.319 16.1098V16.0816L15.9121 15.8839L15.9319 15.9065L15.5817 16.4289L15.5534 16.4177L15.6071 16.1352L15.319 16.1098ZM15.0648 17.3299V17.2988L15.3811 17.2423L15.3952 17.2706L15.1778 17.5078L15.1495 17.4937L15.1947 17.3638L15.0648 17.3299ZM15.0902 15.1495L15.0874 15.1185L15.689 14.9434L15.7087 14.9688L15.3388 15.4772L15.3105 15.463L15.3727 15.1834L15.0902 15.1495ZM16.6492 16.3555L16.621 16.3386L16.6775 16.1748L16.508 16.1324V16.0985L16.9034 16.0335L16.9175 16.0618L16.6492 16.3555ZM17.135 14.8219L17.2056 14.6609L17.039 14.6045L17.0446 14.5762L17.4429 14.5395L17.457 14.5677L17.1604 14.8417L17.135 14.8219ZM17.6575 13.0624H17.9795L17.9879 13.0906L17.7338 13.2883L17.7112 13.2686L17.7761 13.1471L17.6519 13.0906L17.6575 13.0624ZM17.4965 15.4122L17.2762 15.6466L17.248 15.6325L17.2932 15.5026L17.1633 15.4687V15.4376L17.4796 15.384L17.4965 15.4122ZM17.4767 13.6555L17.0813 13.9633L17.0588 13.9436L17.1661 13.7459L16.9599 13.6555L16.9656 13.6244H17.4683L17.4767 13.6555ZM16.7396 12.8647H17.1407L17.1491 12.8929L16.8328 13.1387L16.8102 13.1189L16.8949 12.9635L16.7311 12.8958L16.7396 12.8647ZM16.6972 15.1439L16.3809 15.5308L16.3527 15.5167L16.4148 15.3021L16.1945 15.2597V15.223L16.6859 15.1157L16.6972 15.1439ZM16.6549 14.1752L16.669 14.2006L16.2736 14.6553L16.2454 14.6412L16.3301 14.3813L16.0618 14.3249V14.291L16.6549 14.1752ZM16.4402 13.4493L16.0448 13.7543L16.0166 13.7346L16.1296 13.5369L15.9206 13.4493L15.929 13.4183H16.4318L16.4402 13.4493ZM15.6833 12.8647H16.0053L16.0138 12.8929L15.7596 13.0906L15.737 13.0709L15.8019 12.9494L15.6749 12.8929L15.6833 12.8647ZM15.5393 14.0424L15.5534 14.0707L15.1185 14.5226L15.0902 14.5056L15.1891 14.2373L14.9123 14.1639V14.1328L15.5393 14.0424ZM14.5451 16.669V16.6351L15.0394 16.5334L15.0535 16.5617L14.7287 16.943L14.7005 16.9288L14.7654 16.7114L14.5451 16.669ZM14.7711 13.2912H15.271L15.2823 13.3194L14.8869 13.6273L14.8615 13.6047L14.9688 13.407L14.7626 13.3222L14.7711 13.2912ZM14.7428 15.7426L14.4406 16.1437L14.4124 16.1296L14.4632 15.9093L14.2429 15.881V15.8443L14.7231 15.7116L14.7428 15.7426ZM14.5903 14.9377L14.2797 15.3049L14.2514 15.2879L14.3107 15.0818L14.1017 15.0394V15.0083L14.5734 14.9095L14.5903 14.9377ZM14.0255 14.2175L14.4209 14.1526L14.435 14.1808L14.1639 14.4745L14.1356 14.4576L14.1921 14.2938L14.0226 14.2514L14.0255 14.2175ZM12.989 16.9966L12.9635 16.9769L13.0313 16.8554L12.9042 16.7989L12.9127 16.7707H13.2347L13.2431 16.7989L12.989 16.9966ZM13.2516 17.7055L13.229 17.6858L13.294 17.5671L13.1697 17.5107L13.1754 17.4824H13.4973L13.5058 17.5107L13.2516 17.7055ZM13.6188 16.5193L13.5905 16.4996L13.6753 16.3414L13.5086 16.2793L13.5143 16.2454L13.9153 16.2341L13.9266 16.2623L13.6188 16.5193ZM13.8673 17.1915L13.8419 17.1717L13.9266 17.0164L13.7656 16.9486L13.7741 16.9175H14.1752L14.1836 16.9458L13.8673 17.1915ZM14.2571 17.7677L14.2316 17.7479L14.2994 17.6264L14.1723 17.57L14.1808 17.5417H14.5028L14.5112 17.57L14.2571 17.7677ZM12.8788 21.0975L12.7687 21.1342L12.6839 21.1596L12.6049 21.1822L12.4919 21.2161L12.4749 21.1681L12.4834 21.1625L12.5823 21.1229L12.7009 21.0749L12.7291 21.0636L12.8506 21.0156C12.9621 20.972 13.0742 20.9296 13.1867 20.8885L13.229 20.8744L13.3137 20.8433C13.4267 20.8038 13.5453 20.7586 13.6668 20.719C13.8142 20.6707 13.962 20.6236 14.1102 20.5778L14.1695 20.5581L14.3107 20.5157L14.4971 20.4677L14.7231 20.4112L14.7739 20.3971L14.8812 20.3745H14.8897L14.9066 20.4225L14.8954 20.4253L14.7937 20.4649L14.7231 20.4903L14.5254 20.5581L14.3446 20.6174L14.3022 20.6315L14.1413 20.688C14.0001 20.736 13.8532 20.784 13.7035 20.8292L13.5905 20.8687L13.2657 20.9761L13.1104 21.0241L12.8788 21.0975ZM16.3244 20.462L16.2143 20.4987L15.9516 20.5919L15.8923 20.6117L15.7031 20.6767C15.6127 20.7049 15.5195 20.7416 15.4291 20.7727L14.8276 20.9845L14.4406 21.1257L14.2288 21.202C14.1639 21.2302 14.1017 21.25 14.0396 21.2726L13.9549 21.3008L13.7798 21.3658L13.7063 21.394C13.6181 21.4258 13.5296 21.4569 13.4408 21.4872L13.3363 21.5268L13.1951 21.5748L13.1838 21.5776L13.1641 21.5296L13.1754 21.524L13.3137 21.4675L13.4154 21.4223L13.6753 21.3121L13.7261 21.2924L13.9181 21.2133L14.0057 21.1794L14.1921 21.106L14.4039 21.0241C14.531 20.9789 14.6581 20.928 14.7909 20.8829L15.3952 20.6739L15.5365 20.6258L15.672 20.5835L15.9262 20.5072L16.1889 20.431L16.3018 20.3971L16.4572 20.3519L16.4741 20.4027L16.3244 20.462ZM14.9405 19.8407L14.9434 19.8068C14.9545 19.8043 14.9659 19.8024 14.9773 19.8011C14.9894 19.7995 15.0018 19.7995 15.014 19.8011C15.0299 19.7989 15.0461 19.7989 15.062 19.8011H15.0733L15.0902 19.8068C15.0998 19.8091 15.1092 19.812 15.1185 19.8153C15.1397 19.8213 15.1605 19.8288 15.1806 19.8379C15.2015 19.8492 15.2214 19.8625 15.2399 19.8774C15.2602 19.8926 15.2791 19.9096 15.2964 19.9282L15.3105 19.948C15.3212 19.9603 15.3306 19.9735 15.3388 19.9876C15.3499 20.0084 15.3593 20.0302 15.367 20.0525C15.3746 20.0736 15.3803 20.0953 15.384 20.1175L15.3896 20.1457V20.174C15.3896 20.1911 15.3878 20.2081 15.384 20.2248C15.3837 20.2372 15.3818 20.2496 15.3783 20.2615L15.367 20.2898H15.3331L15.3246 20.2615C15.3219 20.2508 15.3181 20.2404 15.3133 20.2304C15.3095 20.217 15.3047 20.2038 15.2992 20.1909C15.2937 20.1763 15.2871 20.1621 15.2795 20.1485C15.2719 20.133 15.2634 20.1179 15.254 20.1033L15.2258 20.061L15.1919 20.0186L15.1637 19.9904C15.1613 19.9863 15.1585 19.9825 15.1552 19.9791L15.1156 19.9424C15.1043 19.9311 15.0874 19.9198 15.0733 19.9141C15.0605 19.905 15.0474 19.8965 15.0337 19.8887L14.997 19.8689L14.9688 19.8548L14.9405 19.8407ZM15.9206 19.5865L15.9319 19.5893C15.9532 19.5962 15.9739 19.6047 15.994 19.6147C16.0151 19.6258 16.035 19.6391 16.0533 19.6543C16.0735 19.6686 16.0924 19.6847 16.1098 19.7023C16.1262 19.7214 16.1404 19.7422 16.1522 19.7644C16.1632 19.7844 16.1727 19.8051 16.1804 19.8266C16.1878 19.8477 16.1934 19.8695 16.1973 19.8915L16.203 19.9198V19.948C16.2036 19.965 16.2026 19.982 16.2002 19.9988C16.199 20.0114 16.1961 20.0238 16.1917 20.0356L16.1804 20.0638H16.1493C16.1451 20.0546 16.1413 20.0452 16.138 20.0356C16.138 20.0243 16.1324 20.013 16.1267 20.0017L16.1126 19.965C16.1069 19.9505 16.1003 19.9363 16.0928 19.9226C16.0852 19.9071 16.0768 19.892 16.0674 19.8774L16.0392 19.835L16.0081 19.7899C15.9968 19.7729 15.9827 19.7616 15.9686 19.7503L15.929 19.7136C15.9163 19.7036 15.9031 19.6941 15.8895 19.6854C15.8655 19.668 15.84 19.6528 15.8132 19.6402C15.8042 19.634 15.7947 19.6283 15.785 19.6232L15.7737 19.6204L15.5308 19.6797L15.4969 19.6882L15.5252 19.6967C15.5465 19.7047 15.5672 19.7141 15.5873 19.7249C15.6072 19.7354 15.6261 19.7477 15.6438 19.7616C15.6643 19.7766 15.6833 19.7936 15.7003 19.8124C15.7161 19.831 15.7302 19.8508 15.7426 19.8718C15.7549 19.8924 15.7653 19.9142 15.7737 19.9367C15.7808 19.958 15.7864 19.9797 15.7906 20.0017L15.7963 20.0299V20.0582C15.7967 20.0742 15.7958 20.0903 15.7935 20.1062C15.7917 20.1186 15.7888 20.1309 15.785 20.1429C15.782 20.1526 15.7782 20.162 15.7737 20.1711H15.7398L15.7313 20.1429C15.7283 20.1323 15.7245 20.1219 15.72 20.1118L15.7059 20.0751L15.6862 20.0299L15.6636 19.9876L15.6353 19.9424C15.6268 19.9254 15.6099 19.9141 15.6014 19.9C15.5891 19.886 15.5759 19.8728 15.5619 19.8605L15.5223 19.8237C15.511 19.8096 15.4941 19.804 15.4828 19.7955L15.4433 19.7701L15.4065 19.7503L15.3783 19.7362L15.3529 19.7249L14.9179 19.2222L14.7033 18.019L14.7457 17.9993L15.576 19.0103L15.8641 19.0047L16.604 19.417L15.9206 19.5865ZM17.2367 19.273L17.2395 19.2448L17.2734 19.2419C17.2856 19.2406 17.2979 19.2406 17.3101 19.2419C17.3261 19.2407 17.3421 19.2407 17.3581 19.2419H17.361L17.3864 19.2476L17.4146 19.2561C17.4583 19.2704 17.4987 19.2934 17.5332 19.3238C17.5487 19.3355 17.5629 19.3488 17.5756 19.3634L17.5869 19.3747C17.6028 19.3931 17.617 19.413 17.6293 19.434C17.6403 19.4549 17.6497 19.4766 17.6575 19.499C17.664 19.5202 17.6687 19.5419 17.6716 19.5639L17.6744 19.5922V19.6204C17.6757 19.6374 17.6748 19.6545 17.6716 19.6712C17.6702 19.6837 17.6673 19.6961 17.6632 19.7079L17.649 19.7362H17.6208L17.6095 19.7079C17.6066 19.6964 17.6028 19.685 17.5982 19.6741L17.5841 19.6373L17.5671 19.595L17.5417 19.5498L17.5135 19.5046C17.5039 19.489 17.4936 19.4739 17.4824 19.4594L17.4457 19.4199C17.4398 19.4135 17.4331 19.4078 17.4259 19.4029C17.419 19.3966 17.4124 19.39 17.4061 19.3832L17.3666 19.3549L17.3271 19.3267L17.2903 19.3069L17.2621 19.2928L17.2339 19.2787L17.2367 19.273ZM18.2704 19.9395L18.2195 19.9565L18.18 19.9678L18.084 19.996C17.9484 20.0329 17.8119 20.0659 17.6744 20.0949L17.6349 20.1033C17.5065 20.1342 17.3775 20.1624 17.248 20.1881L17.1463 20.2022L17.1068 20.2078L17.0531 20.2163H17.0446L17.0333 20.1655L17.0418 20.1627L17.0926 20.1457L17.1209 20.1344L17.2282 20.1005C17.3525 20.061 17.505 20.0186 17.6406 19.9876L17.8665 19.9424L18.0642 19.9085L18.1659 19.8972L18.2054 19.8915L18.2619 19.8859H18.2704L18.2788 19.9367L18.2704 19.9395ZM18.7505 19.4622H18.742L18.7307 19.4114H18.7392L18.807 19.3916C18.8652 19.3761 18.9236 19.3611 18.9821 19.3464C19.1592 19.3049 19.3372 19.2672 19.5159 19.2335H19.5215L19.804 19.1826L20.0384 19.1487H20.0553L20.1909 19.1318L20.2333 19.1261L20.301 19.1205H20.3123L20.3208 19.1713H20.3095L20.2446 19.1911L20.1965 19.2024L20.0694 19.2306L19.9339 19.2589L19.8209 19.2843L19.5808 19.3323L19.5357 19.3408C19.3135 19.3825 19.0903 19.4183 18.8663 19.4481L18.8183 19.4538L18.7505 19.4651V19.4622ZM20.9534 19.5272L20.8631 19.5413L20.7077 19.5696C20.5922 19.59 20.4764 19.6088 20.3603 19.626L20.1626 19.6543L20.1231 19.6599L19.9621 19.6854L19.8068 19.7051L19.5639 19.7418L19.4255 19.7616L19.3803 19.7673L19.2165 19.7899L19.0471 19.8124L18.9708 19.8209L18.8663 19.8322L18.8578 19.7814L18.9595 19.7588L19.0301 19.7418L19.2024 19.7079L19.2928 19.6882L19.3662 19.6741L19.4396 19.6599L19.547 19.6402C19.6063 19.6289 19.674 19.6147 19.7447 19.6063L19.9452 19.5752L20.1485 19.547L20.3462 19.5187L20.5778 19.4961L20.6936 19.482L20.9139 19.4651L20.9422 19.4622L21.0382 19.4566H21.0466L21.0523 19.5074L20.9534 19.5272Z" fill="var(--fill-0, white)"/>
</g>
<defs>
<clipPath id="clip0_8093_96749">
<rect width="28" height="28" fill="white"/>
</clipPath>
</defs>
</svg>
