<svg preserveAspectRatio="none" width="100%" height="100%" overflow="visible" style="display: block;" viewBox="0 0 20.9602 27.9928" fill="none" xmlns="http://www.w3.org/2000/svg">
<g id="Page 1">
<path id="Path 30" d="M20.8461 17.3017C19.9695 19.6978 18.3811 21.5415 16.0538 22.5322V17.3017L18.8194 14.7444L16.0538 12.2106V8.61552C18.5876 8.4326 20.3389 6.52005 20.3389 4.16921C20.3389 1.08305 17.5063 0 15.8926 0C15.5485 0 15.1573 0 14.6031 0.137646V0.275291C14.8114 0.275291 15.1102 0.253558 15.2261 0.253558C16.3309 0.253558 17.184 0.782406 17.184 1.84191C17.184 2.64968 16.5609 3.43208 15.4326 3.43208C12.6688 3.43208 9.42148 1.12833 5.87348 1.12833C2.74204 1.12833 0.575938 3.54799 0.575938 6.01294C0.575938 8.4326 1.93609 9.23855 3.36326 9.76921L3.41035 9.62975C2.94851 9.33092 2.62613 8.8238 2.62613 8.03959C2.62613 6.95834 3.61682 6.03648 4.83752 6.03648C7.80957 6.03648 12.6 8.61552 15.5702 8.61552H15.8473V12.2342L13.0836 14.7444L15.8473 17.3017V22.601C14.6955 23.0393 13.4983 23.2241 12.2776 23.2241C7.67012 23.2241 4.72342 20.3208 4.72342 15.505C4.72342 14.3296 4.86106 13.2248 5.18344 12.1418L7.48719 11.0823V21.7263L12.1853 19.5837V8.68616L5.29754 11.8882C5.98939 9.76921 7.41656 8.24787 9.14437 7.39483L9.0991 7.28072C4.49159 8.31669 0 11.9571 0 17.3723C0 23.6388 5.11462 27.9928 11.0569 27.9928C17.3452 27.9928 20.9149 23.6388 20.9602 17.3017H20.8461Z" fill="var(--fill-0, black)"/>
</g>
</svg>
