<svg preserveAspectRatio="none" width="100%" height="100%" overflow="visible" style="display: block;" viewBox="0 0 12.6431 13.211" fill="none" xmlns="http://www.w3.org/2000/svg">
<g id="g2458">
<path id="path2468" d="M5.51299 0.46519C5.42438 0.81962 5.62375 1.17405 5.95603 1.28481C6.31046 1.37342 6.66489 1.17405 6.77565 0.841772C6.88641 0.487342 6.68704 0.110759 6.33261 0.0221516C6.27354 0.00738363 6.21447 0 6.1554 0C5.86742 0 5.6016 0.177215 5.51299 0.46519ZM7.28514 0.664557C7.15223 1.08544 7.37375 1.48418 7.79464 1.61709C8.19337 1.72785 8.61426 1.50633 8.72502 1.10759C8.83578 0.708861 8.61426 0.287974 8.21552 0.155063C8.14168 0.140295 8.06784 0.132911 7.994 0.132911C7.68388 0.132911 7.37375 0.35443 7.28514 0.664557ZM3.76299 0.81962C3.67438 1.12975 3.8516 1.46203 4.16173 1.55063C4.47185 1.63924 4.78198 1.46202 4.87059 1.1519C4.95919 0.841771 4.78198 0.531646 4.494 0.443038C4.43493 0.42827 4.37586 0.420886 4.31679 0.420886C4.07312 0.420886 3.82945 0.575949 3.76299 0.81962ZM9.05729 1.50633C8.94654 1.83861 9.1459 2.21519 9.50033 2.3038C9.85476 2.41456 10.2092 2.21519 10.32 1.86076C10.4086 1.52848 10.2092 1.1519 9.87692 1.06329C9.80308 1.03376 9.73662 1.01899 9.67755 1.01899C9.38957 1.01899 9.1459 1.21835 9.05729 1.50633ZM2.25666 1.75C2.16805 1.99367 2.32312 2.25949 2.56679 2.32595C2.81046 2.3924 3.05413 2.25949 3.12059 2.01582C3.18704 1.77215 3.05413 1.52848 2.81046 1.43987C2.76616 1.42511 2.72185 1.41772 2.67755 1.41772C2.47818 1.41772 2.30097 1.55063 2.25666 1.75ZM10.475 2.79114C10.3864 3.10127 10.5636 3.43354 10.8738 3.52215C11.1839 3.61076 11.494 3.43354 11.6048 3.12342C11.6934 2.81329 11.5162 2.50316 11.206 2.41456C11.147 2.39979 11.0879 2.3924 11.0288 2.3924C10.7851 2.3924 10.5636 2.54747 10.475 2.79114ZM1.03831 3.12342C0.994004 3.32278 1.10476 3.5443 1.30413 3.58861C1.5035 3.65506 1.70286 3.5443 1.76932 3.34494C1.81362 3.14557 1.70286 2.9462 1.5035 2.87975C1.47396 2.86498 1.44443 2.85759 1.41489 2.85759C1.23767 2.85759 1.10476 2.96835 1.03831 3.12342ZM11.494 4.47468C11.4054 4.71835 11.5605 4.96202 11.8041 5.05063C12.0478 5.11709 12.2915 4.96202 12.3579 4.71835C12.4465 4.47468 12.3136 4.23101 12.0478 4.16456C12.0183 4.14979 11.9813 4.1424 11.937 4.1424C11.7377 4.1424 11.5383 4.27532 11.494 4.47468ZM0.351599 4.85127C0.307296 4.98418 0.37375 5.13924 0.528814 5.18354C0.683877 5.22785 0.83894 5.13924 0.883244 5.00633C0.927547 4.85127 0.838941 4.6962 0.683878 4.6519C0.654342 4.6519 0.632189 4.6519 0.617422 4.6519C0.48451 4.6519 0.373751 4.71835 0.351599 4.85127ZM11.9149 6.33544C11.8484 6.51266 11.9813 6.73418 12.1807 6.77848C12.3579 6.84494 12.5794 6.73418 12.6238 6.53481C12.6902 6.33544 12.5794 6.13608 12.3801 6.06962C12.3505 6.05485 12.3136 6.04747 12.2693 6.04747C12.1143 6.04747 11.9592 6.15823 11.9149 6.33544ZM0.0193201 6.66772C-0.0471356 6.86709 0.0636244 7.06646 0.262991 7.11076C0.462359 7.17721 0.661725 7.06646 0.728181 6.86709C0.772485 6.66772 0.661726 6.46835 0.48451 6.4019C0.440207 6.4019 0.403287 6.4019 0.373751 6.4019C0.218688 6.4019 0.0636239 6.51266 0.0193201 6.66772ZM11.7598 8.1962C11.7155 8.35127 11.8041 8.50633 11.9592 8.55063C12.0921 8.59494 12.2472 8.50633 12.2915 8.35126C12.3358 8.21835 12.2693 8.06329 12.1143 8.01899C12.0847 8.00422 12.0552 7.99683 12.0256 7.99683C11.9149 7.99683 11.8041 8.08544 11.7598 8.1962ZM0.285143 8.46202C0.218687 8.7057 0.329447 8.97152 0.59527 9.03797C0.816789 9.10443 1.08261 8.97152 1.14907 8.72785C1.21552 8.48418 1.08261 8.21835 0.838941 8.17405C0.794637 8.15928 0.750333 8.1519 0.706029 8.1519C0.506662 8.1519 0.329447 8.26266 0.285143 8.46202ZM10.8738 9.85759C10.8294 10.057 10.9402 10.2563 11.1396 10.3228C11.3389 10.3671 11.5383 10.2563 11.6048 10.057C11.6491 9.87975 11.5383 9.65823 11.3389 9.61392C11.3094 9.59916 11.2725 9.59177 11.2282 9.59177C11.0731 9.59177 10.9181 9.70253 10.8738 9.85759ZM1.03831 10.0791C0.9497 10.3892 1.12691 10.6994 1.43704 10.788C1.74717 10.8766 2.07945 10.6994 2.16805 10.3892C2.25666 10.1013 2.07945 9.76899 1.76932 9.68038C1.71025 9.66561 1.65856 9.65823 1.61426 9.65823C1.34843 9.65823 1.12692 9.81329 1.03831 10.0791ZM9.52248 11.1867C9.45603 11.4304 9.58894 11.674 9.83261 11.7627C10.0763 11.8291 10.32 11.674 10.3864 11.4525C10.475 11.2089 10.32 10.943 10.0763 10.8766C10.0467 10.8618 10.0098 10.8544 9.96552 10.8544C9.76616 10.8544 9.56679 10.9873 9.52248 11.1867ZM2.32312 11.3418C2.23451 11.674 2.43388 12.0285 2.76616 12.1392C3.12059 12.25 3.47502 12.0506 3.58578 11.6962C3.69654 11.3639 3.49717 10.9873 3.14274 10.8766C3.08367 10.8618 3.02459 10.8544 2.96552 10.8544C2.67755 10.8544 2.41172 11.0538 2.32312 11.3418ZM3.91806 12.0949C3.8073 12.4937 4.02881 12.9146 4.42755 13.0253C4.82628 13.1582 5.24717 12.9146 5.35793 12.5158C5.49084 12.1171 5.24717 11.6962 4.84843 11.5854C4.77459 11.5707 4.70814 11.5633 4.64907 11.5633C4.31679 11.5633 4.00666 11.7627 3.91806 12.0949ZM7.77249 12.0506C7.66173 12.3608 7.86109 12.6709 8.14907 12.7595C8.45919 12.8481 8.79147 12.6709 8.88008 12.3608C8.96869 12.0728 8.79147 11.7405 8.48135 11.6519C8.42227 11.6371 8.37059 11.6297 8.32628 11.6297C8.06046 11.6297 7.83894 11.7848 7.77249 12.0506ZM5.86742 12.3608C5.75666 12.7152 5.95603 13.0696 6.31046 13.1804C6.66489 13.2911 7.01932 13.0918 7.13008 12.7373C7.21869 12.3829 7.01932 12.0285 6.68704 11.9177C6.6132 11.903 6.54675 11.8956 6.48768 11.8956C6.1997 11.8956 5.95603 12.0728 5.86742 12.3608Z" fill="url(#paint0_linear_8093_96782)"/>
</g>
<defs>
<linearGradient id="paint0_linear_8093_96782" x1="12.2975" y1="8.3537" x2="0.343681" y2="4.84287" gradientUnits="userSpaceOnUse">
<stop stop-color="#F99D1C"/>
<stop offset="0.5" stop-color="#F37021"/>
<stop offset="1" stop-color="#F99D1C"/>
</linearGradient>
</defs>
</svg>
