<svg preserveAspectRatio="none" width="100%" height="100%" overflow="visible" style="display: block;" viewBox="0 0 22.8424 22.075" fill="none" xmlns="http://www.w3.org/2000/svg">
<g id="g2502">
<path id="path2512" d="M12.5177 0C12.1633 0.0664557 11.9196 0.420886 12.0082 0.775316C12.0747 1.10759 12.4069 1.35127 12.7614 1.26266C13.1158 1.1962 13.3373 0.863924 13.2709 0.509494C13.2044 0.199367 12.9386 0 12.6285 0C12.5989 0 12.562 0 12.5177 0ZM9.83732 0.177215C9.54935 0.221519 9.37213 0.487342 9.39428 0.753164C9.43859 1.04114 9.70441 1.21835 9.97023 1.17405C10.2582 1.12975 10.4354 0.886076 10.4133 0.598101C10.369 0.354431 10.1474 0.177215 9.90378 0.177215C9.87424 0.177215 9.85209 0.177215 9.83732 0.177215ZM15.0873 0.553797C14.6664 0.664557 14.4228 1.08544 14.5335 1.50633C14.6221 1.92722 15.0652 2.17089 15.4861 2.06013C15.8848 1.94937 16.1506 1.52848 16.0399 1.10759C15.9512 0.753165 15.6411 0.531646 15.2867 0.531646C15.2128 0.531646 15.1464 0.53903 15.0873 0.553797ZM7.09048 0.996835C6.84681 1.08544 6.73605 1.37342 6.84681 1.61709C6.95757 1.86076 7.2234 1.94937 7.46707 1.86076C7.71074 1.75 7.8215 1.48418 7.71074 1.24051C7.62213 1.06329 7.46707 0.952532 7.28985 0.952532C7.21601 0.952532 7.14956 0.9673 7.09048 0.996835ZM17.369 1.7057C16.8595 1.86076 16.5715 2.41456 16.7266 2.92405C16.9038 3.4557 17.4354 3.72152 17.9671 3.56646C18.4766 3.41139 18.7645 2.85759 18.5873 2.3481C18.4766 1.92722 18.0778 1.66139 17.6791 1.66139C17.5757 1.66139 17.4723 1.67616 17.369 1.7057ZM4.60947 2.43671C4.41011 2.59177 4.3658 2.92405 4.54302 3.14557C4.72023 3.36709 5.03036 3.38924 5.25188 3.21203C5.4734 3.05696 5.49555 2.72468 5.34049 2.50316C5.22973 2.39241 5.07466 2.32595 4.94175 2.32595C4.83099 2.32595 4.72023 2.3481 4.60947 2.43671ZM19.2519 3.52215C18.6981 3.74367 18.4101 4.36392 18.6095 4.91772C18.831 5.47152 19.4512 5.75949 20.005 5.56013C20.5588 5.33861 20.8468 4.71835 20.6253 4.16456C20.4702 3.72152 20.0715 3.4557 19.6285 3.4557C19.4955 3.4557 19.37 3.47785 19.2519 3.52215ZM2.66011 4.25316C2.37213 4.45253 2.28352 4.85127 2.50504 5.16139C2.70441 5.44937 3.10314 5.51582 3.39112 5.31646C3.70125 5.09494 3.7677 4.6962 3.54618 4.40823C3.43542 4.23101 3.23606 4.1424 3.03669 4.1424C2.90378 4.1424 2.77087 4.16456 2.66011 4.25316ZM20.5588 5.8038C19.9607 6.06962 19.6949 6.75633 19.9386 7.35443C20.2044 7.95253 20.8911 8.21835 21.4892 7.95253C22.0873 7.70886 22.3531 7.02215 22.1095 6.42405C21.9101 5.98101 21.4671 5.71519 21.024 5.71519C20.8616 5.71519 20.7065 5.74473 20.5588 5.8038ZM1.28669 6.51266C0.910106 6.73418 0.799347 7.22152 1.04302 7.57595C1.26454 7.95253 1.75188 8.06329 2.12846 7.81962C2.48289 7.5981 2.59365 7.11076 2.34998 6.75633C2.21707 6.51266 1.95125 6.37975 1.70757 6.37975C1.55251 6.37975 1.4196 6.42405 1.28669 6.51266ZM21.2899 8.55063C20.7582 8.81646 20.5367 9.45886 20.8025 9.99051C21.0683 10.5222 21.7107 10.7437 22.2424 10.4778C22.774 10.212 22.9955 9.56962 22.7297 9.03797C22.5525 8.66139 22.1538 8.43987 21.7772 8.43987C21.6147 8.43987 21.4523 8.47679 21.2899 8.55063ZM0.555676 8.97152C0.0904861 9.23734 -0.0867293 9.81329 0.179094 10.3006C0.444916 10.7658 1.04302 10.9209 1.50821 10.6551C1.9734 10.4114 2.15061 9.81329 1.88479 9.32595C1.70757 9.01582 1.3753 8.83861 1.02087 8.83861C0.865802 8.83861 0.710739 8.88291 0.555676 8.97152ZM21.3342 11.3861C20.869 11.6519 20.6918 12.25 20.9576 12.7152C21.2234 13.2025 21.8215 13.3576 22.2867 13.0918C22.7519 12.8259 22.9291 12.2278 22.6633 11.7627C22.4861 11.4525 22.1538 11.2753 21.7993 11.2753C21.6443 11.2753 21.4892 11.3196 21.3342 11.3861ZM0.59998 11.5854C0.0683343 11.8513 -0.153185 12.4937 0.112638 13.0253C0.356309 13.557 1.02087 13.7785 1.55251 13.5127C2.08416 13.2468 2.30568 12.6044 2.03985 12.0728C1.84049 11.6962 1.4639 11.4747 1.06517 11.4747C0.902722 11.4747 0.747659 11.5116 0.59998 11.5854ZM1.35314 14.0886C0.755043 14.3544 0.48922 15.0411 0.732891 15.6392C0.998714 16.2373 1.68542 16.5032 2.28352 16.2373C2.88163 15.9937 3.14745 15.307 2.88163 14.7089C2.70441 14.2658 2.26137 14 1.81833 14C1.65589 14 1.50082 14.0295 1.35314 14.0886ZM20.7139 14.2215C20.3595 14.4652 20.2487 14.9525 20.4702 15.307C20.7139 15.6835 21.2012 15.7943 21.5557 15.5506C21.9323 15.3291 22.043 14.8418 21.7993 14.4652C21.6443 14.2437 21.4006 14.1108 21.1348 14.1108C21.0019 14.1108 20.8468 14.1551 20.7139 14.2215ZM2.83732 16.5032C2.28352 16.7247 1.99555 17.3449 2.19492 17.8987C2.41643 18.4525 3.03669 18.7405 3.59049 18.519C4.14428 18.3196 4.43226 17.6994 4.21074 17.1456C4.05568 16.7025 3.65694 16.4367 3.2139 16.4367C3.09576 16.4367 2.97023 16.4589 2.83732 16.5032ZM19.4291 16.7468C19.1411 16.9462 19.0747 17.3671 19.274 17.6551C19.4955 17.943 19.8943 18.0095 20.1823 17.8101C20.4702 17.5886 20.5367 17.1899 20.3373 16.9019C20.2044 16.7247 20.005 16.6361 19.8057 16.6361C19.6728 16.6361 19.562 16.6582 19.4291 16.7468ZM4.8753 18.4968C4.3658 18.6519 4.07783 19.1835 4.23289 19.7152C4.41011 20.2247 4.94175 20.5127 5.4734 20.3576C5.98289 20.1804 6.27087 19.6487 6.1158 19.1392C5.98289 18.7184 5.58416 18.4525 5.16327 18.4525C5.07466 18.4525 4.97867 18.4673 4.8753 18.4968ZM17.5905 18.8291C17.369 19.0063 17.3468 19.3386 17.5019 19.538C17.6791 19.7595 18.0114 19.8038 18.2107 19.6266C18.4323 19.4494 18.4766 19.1392 18.2993 18.9177C18.2107 18.7848 18.0557 18.7184 17.9006 18.7184C17.7899 18.7184 17.6791 18.7627 17.5905 18.8291ZM7.35631 19.981C6.95757 20.0918 6.69175 20.5127 6.80251 20.9335C6.91327 21.3544 7.33416 21.6203 7.75504 21.5095C8.17593 21.3987 8.4196 20.9778 8.30884 20.557C8.22023 20.2025 7.91011 19.9589 7.55568 19.9589C7.4966 19.9589 7.43015 19.9662 7.35631 19.981ZM15.3753 20.2025C15.1316 20.3133 15.0209 20.5791 15.1316 20.8228C15.2424 21.0665 15.5082 21.1772 15.7519 21.0665C15.9955 20.9557 16.1063 20.6899 15.9955 20.4462C15.9069 20.269 15.7519 20.1582 15.5525 20.1582C15.4934 20.1582 15.4344 20.173 15.3753 20.2025ZM10.081 20.7785C9.72656 20.8671 9.50504 21.1994 9.5715 21.5538C9.63795 21.9082 9.99238 22.1297 10.3247 22.0633C10.6791 21.9747 10.9006 21.6424 10.8342 21.288C10.7677 20.9778 10.5019 20.7785 10.2139 20.7785C10.1696 20.7785 10.1253 20.7785 10.081 20.7785ZM12.8721 20.8892C12.5842 20.9114 12.3848 21.1772 12.4291 21.443C12.4734 21.731 12.7392 21.9082 13.005 21.8861C13.293 21.8418 13.4702 21.5759 13.4259 21.3101C13.4038 21.0443 13.1823 20.8671 12.9386 20.8671C12.9091 20.8671 12.8869 20.8745 12.8721 20.8892Z" fill="url(#paint0_linear_8093_96773)"/>
</g>
<defs>
<linearGradient id="paint0_linear_8093_96773" x1="15.7483" y1="21.0645" x2="7.0912" y2="0.994376" gradientUnits="userSpaceOnUse">
<stop stop-color="#F99D1C"/>
<stop offset="0.5" stop-color="#F37021"/>
<stop offset="1" stop-color="#F99D1C"/>
</linearGradient>
</defs>
</svg>
