<svg preserveAspectRatio="none" width="100%" height="100%" overflow="visible" style="display: block;" viewBox="0 0 17.0908 17.229" fill="none" xmlns="http://www.w3.org/2000/svg">
<g id="g2480">
<path id="path2490" d="M8.99953 0.221519C8.73371 0.531646 8.7337 0.996836 9.04383 1.28481C9.33181 1.57278 9.81915 1.55063 10.085 1.26266C10.3729 0.952532 10.3508 0.487342 10.0628 0.199367C9.90775 0.066456 9.73054 0 9.55333 0C9.35396 0 9.15459 0.0664557 8.99953 0.221519ZM6.65143 0.420886C6.42991 0.642405 6.42991 1.01899 6.67358 1.24051C6.8951 1.46203 7.27168 1.46203 7.4932 1.21835C7.71472 0.974684 7.71472 0.620253 7.47105 0.398734C7.36029 0.287975 7.20522 0.221519 7.07231 0.221519C6.91725 0.221519 6.76218 0.287975 6.65143 0.420886ZM11.3255 0.863924C11.0154 1.1962 11.0154 1.72785 11.3476 2.03797C11.7021 2.37025 12.2337 2.3481 12.5438 2.01582C12.854 1.68354 12.854 1.1519 12.5217 0.81962C12.3445 0.664557 12.1451 0.598101 11.9236 0.598101C11.7021 0.598101 11.4805 0.686709 11.3255 0.863924ZM4.39193 1.32911C4.21472 1.52848 4.21472 1.81646 4.41408 1.99367C4.5913 2.17089 4.90143 2.17089 5.07864 1.97152C5.25586 1.7943 5.25586 1.48418 5.05649 1.30696C4.96788 1.21835 4.85712 1.17405 4.72421 1.17405C4.61345 1.17405 4.48054 1.21835 4.39193 1.32911ZM13.2748 2.17089C12.9204 2.56962 12.9426 3.16772 13.3191 3.5443C13.7179 3.89873 14.316 3.87658 14.6926 3.5C15.047 3.10127 15.047 2.50316 14.6483 2.12658C14.471 1.94937 14.2274 1.86076 13.9837 1.86076C13.74 1.86076 13.4742 1.97152 13.2748 2.17089ZM2.50902 2.92405C2.37611 3.07911 2.37611 3.30063 2.53117 3.43354C2.66408 3.56646 2.8856 3.56646 3.01852 3.41139C3.15143 3.27848 3.15143 3.05696 3.01852 2.92405C2.95206 2.85759 2.86345 2.81329 2.77484 2.81329C2.66408 2.81329 2.57548 2.85759 2.50902 2.92405ZM14.8919 4.23101C14.5818 4.56329 14.5818 5.09494 14.9362 5.40506C15.2685 5.73734 15.8002 5.71519 16.1103 5.38291C16.4426 5.02848 16.4204 4.51899 16.0881 4.18671C15.9109 4.03165 15.7116 3.96519 15.5122 3.96519C15.2907 3.96519 15.0691 4.0538 14.8919 4.23101ZM1.02484 4.89557C0.847629 5.09494 0.84763 5.38291 1.047 5.56013C1.22421 5.73734 1.53434 5.73734 1.71155 5.56013C1.88877 5.36076 1.88877 5.05063 1.6894 4.87342C1.60079 4.78481 1.49003 4.74051 1.37928 4.74051C1.24636 4.74051 1.11345 4.80696 1.02484 4.89557ZM15.8002 6.62342C15.5122 6.93354 15.5343 7.39873 15.8223 7.68671C16.1324 7.97468 16.5976 7.95253 16.8856 7.6424C17.1736 7.35443 17.1514 6.86709 16.8635 6.60127C16.7084 6.46835 16.5312 6.4019 16.3318 6.4019C16.1324 6.4019 15.9552 6.46835 15.8002 6.62342ZM0.249528 7.19937C0.028009 7.44304 0.0280095 7.81962 0.27168 8.04114C0.515351 8.26266 0.869781 8.24051 1.11345 8.01899C1.33497 7.77532 1.31282 7.39873 1.06915 7.17722C0.958389 7.06646 0.825478 7.02215 0.670414 7.02215C0.515351 7.02215 0.360287 7.08861 0.249528 7.19937ZM15.9774 9.21519C15.7559 9.45886 15.778 9.83544 16.0217 10.057C16.2432 10.2785 16.6198 10.2563 16.8413 10.0127C17.0628 9.79114 17.0628 9.41456 16.8191 9.19304C16.7084 9.08228 16.5533 9.03797 16.4204 9.03797C16.2653 9.03797 16.1103 9.10443 15.9774 9.21519ZM0.205224 9.56962C-0.0827507 9.87975 -0.0605983 10.3449 0.227376 10.6329C0.537503 10.9209 1.00269 10.8987 1.29067 10.6108C1.57864 10.3006 1.55649 9.83544 1.26852 9.54747C1.11345 9.41456 0.936237 9.3481 0.759021 9.3481C0.559654 9.3481 0.360287 9.41456 0.205224 9.56962ZM15.3793 11.6741C15.2021 11.8734 15.2021 12.1614 15.4014 12.3608C15.5786 12.538 15.8888 12.5158 16.066 12.3386C16.2432 12.1392 16.2432 11.8291 16.0438 11.6519C15.9552 11.5633 15.8445 11.519 15.7116 11.519C15.6008 11.519 15.4679 11.5854 15.3793 11.6741ZM0.98054 11.8513C0.648262 12.1835 0.670414 12.7152 1.00269 13.0475C1.35712 13.3576 1.88877 13.3354 2.19889 13.0032C2.50902 12.6709 2.48687 12.1392 2.15459 11.807C1.99953 11.6519 1.80016 11.5854 1.57864 11.5854C1.35712 11.5854 1.1356 11.6741 0.98054 11.8513ZM2.39826 13.7342C2.04383 14.1108 2.04383 14.731 2.44257 15.0854C2.8413 15.462 3.4394 15.4399 3.81598 15.0633C4.17041 14.6646 4.14826 14.0443 3.77168 13.6899C3.57231 13.5127 3.35079 13.4241 3.10712 13.4241C2.8413 13.4241 2.59763 13.5348 2.39826 13.7342ZM14.0723 13.8006C13.9394 13.9557 13.9394 14.1772 14.0723 14.3101C14.2274 14.443 14.4489 14.443 14.5818 14.288C14.7147 14.1551 14.7147 13.9335 14.5597 13.8006C14.4932 13.7342 14.4046 13.6899 14.316 13.6899C14.2274 13.6899 14.1388 13.7342 14.0723 13.8006ZM4.547 15.2184C4.23687 15.5506 4.23687 16.0823 4.5913 16.3924C4.92358 16.7247 5.45522 16.7025 5.76535 16.3703C6.07548 16.038 6.07548 15.5063 5.72105 15.1741C5.56598 15.019 5.36662 14.9525 5.16725 14.9525C4.92358 14.9525 4.70206 15.0411 4.547 15.2184ZM12.0122 15.2405C11.835 15.4399 11.835 15.75 12.0343 15.9272C12.2337 16.1044 12.5217 16.0823 12.6989 15.9051C12.8761 15.7057 12.8761 15.4177 12.6767 15.2405C12.5881 15.1519 12.4774 15.1076 12.3666 15.1076C12.2337 15.1076 12.1008 15.1519 12.0122 15.2405ZM6.9837 15.9715C6.71788 16.2816 6.71788 16.7468 7.02801 17.0348C7.33814 17.3006 7.80332 17.3006 8.0913 16.9905C8.35712 16.7025 8.35712 16.2152 8.047 15.9494C7.91408 15.7943 7.71472 15.7278 7.5375 15.7278C7.33813 15.7278 7.13877 15.8165 6.9837 15.9715ZM9.59763 16.0158C9.37611 16.2373 9.37611 16.6139 9.61978 16.8354C9.86345 17.057 10.2179 17.057 10.4394 16.8133C10.6609 16.5696 10.6609 16.2152 10.4172 15.9715C10.3065 15.8829 10.1736 15.8165 10.0185 15.8165C9.86345 15.8165 9.70839 15.8829 9.59763 16.0158Z" fill="url(#paint0_linear_8093_96779)"/>
</g>
<defs>
<linearGradient id="paint0_linear_8093_96779" x1="14.4044" y1="14.4714" x2="2.68579" y2="2.75282" gradientUnits="userSpaceOnUse">
<stop stop-color="#F99D1C"/>
<stop offset="0.5" stop-color="#F37021"/>
<stop offset="1" stop-color="#F99D1C"/>
</linearGradient>
</defs>
</svg>
