<svg preserveAspectRatio="none" width="100%" height="100%" overflow="visible" style="display: block;" viewBox="0 0 9.40297 9.5649" fill="none" xmlns="http://www.w3.org/2000/svg">
<g id="g2436">
<path id="path2446" d="M3.67142 0.044304C3.42775 0.199367 3.33914 0.509494 3.47205 0.753165C3.60496 0.996836 3.91509 1.1076 4.15876 0.974684C4.42458 0.819621 4.51319 0.509494 4.38028 0.265823C4.29167 0.0886078 4.11446 0 3.91509 0C3.84125 0 3.76003 0.0147681 3.67142 0.044304ZM5.06699 0.0664564C4.84547 0.199368 4.75686 0.46519 4.86762 0.686709C5.00053 0.908228 5.26636 0.996835 5.48788 0.886076C5.73155 0.753164 5.798 0.487342 5.68724 0.265823C5.59863 0.11076 5.44357 0.0221524 5.28851 0.0221524C5.21467 0.0221524 5.14083 0.0369205 5.06699 0.0664564ZM2.36446 0.443038C2.07648 0.598101 1.96572 0.952532 2.12079 1.24051C2.27585 1.52848 2.63028 1.63924 2.91825 1.48418C3.20623 1.32911 3.31699 0.974684 3.16193 0.686709C3.05117 0.487342 2.8518 0.376582 2.63028 0.376582C2.54167 0.376582 2.45306 0.398734 2.36446 0.443038ZM6.3961 0.509494C6.19674 0.620254 6.13028 0.863925 6.21889 1.06329C6.32965 1.26266 6.57332 1.32911 6.77268 1.21835C6.97205 1.10759 7.03851 0.863924 6.92775 0.664557C6.86129 0.531646 6.72838 0.46519 6.57332 0.46519C6.51425 0.46519 6.45517 0.479958 6.3961 0.509494ZM1.32332 1.32911C1.0575 1.46203 0.968888 1.77215 1.1018 2.03797C1.23471 2.28165 1.54484 2.37025 1.81066 2.23734C2.05433 2.10443 2.14294 1.7943 2.01003 1.52848C1.92142 1.37342 1.7442 1.26266 1.56699 1.26266C1.47838 1.26266 1.39716 1.28481 1.32332 1.32911ZM7.52585 1.32911C7.37079 1.41772 7.30433 1.63924 7.39294 1.7943C7.48155 1.97152 7.68091 2.03798 7.85813 1.94937C8.03534 1.83861 8.1018 1.63924 8.01319 1.46203C7.94673 1.35127 7.81382 1.28481 7.70307 1.28481C7.64399 1.28481 7.58492 1.29958 7.52585 1.32911ZM8.38977 2.45886C8.25686 2.54747 8.19041 2.72468 8.27901 2.85759C8.34547 2.99051 8.52268 3.03481 8.6556 2.96835C8.78851 2.9019 8.85496 2.72468 8.76636 2.59177C8.72205 2.48101 8.61129 2.43671 8.52268 2.43671C8.47838 2.43671 8.43408 2.44409 8.38977 2.45886ZM0.570154 2.50316C0.348635 2.61392 0.260028 2.9019 0.392939 3.12342C0.503699 3.34494 0.791673 3.43354 1.01319 3.30063C1.23471 3.18987 1.32332 2.9019 1.19041 2.68038C1.1018 2.52532 0.946736 2.43671 0.791673 2.43671C0.717833 2.43671 0.643993 2.45886 0.570154 2.50316ZM8.81066 3.69937C8.63345 3.78797 8.58914 3.98734 8.67775 4.16456C8.76636 4.31962 8.96572 4.38608 9.14294 4.29747C9.298 4.20886 9.36446 3.98734 9.27585 3.83228C9.20939 3.72152 9.09863 3.65506 8.96572 3.65506C8.92142 3.65506 8.86973 3.66983 8.81066 3.69937ZM0.215724 3.85443C0.0163565 3.96519 -0.0500999 4.20886 0.0385077 4.38608C0.149267 4.58544 0.392938 4.6519 0.592305 4.56329C0.791672 4.45253 0.858129 4.20886 0.747369 4.00949C0.680914 3.87658 0.548003 3.81013 0.392939 3.81013C0.333868 3.81013 0.274795 3.82489 0.215724 3.85443ZM8.81066 5.00633C8.61129 5.11709 8.54484 5.36076 8.6556 5.53797C8.7442 5.73734 9.01003 5.8038 9.18724 5.71519C9.38661 5.60443 9.45307 5.36076 9.36446 5.16139C9.27585 5.02848 9.14294 4.96203 9.01003 4.96203C8.93619 4.96203 8.86973 4.97679 8.81066 5.00633ZM0.260027 5.25C0.104963 5.33861 0.038508 5.56013 0.127116 5.71519C0.215723 5.89241 0.437242 5.95886 0.592305 5.87025C0.76952 5.78164 0.835977 5.56013 0.725218 5.40506C0.658762 5.27215 0.548002 5.2057 0.437243 5.2057C0.378171 5.2057 0.319098 5.22046 0.260027 5.25ZM8.38977 6.24684C8.16825 6.37975 8.1018 6.64557 8.21256 6.86709C8.32332 7.08861 8.61129 7.17721 8.83281 7.06646C9.05433 6.93354 9.14294 6.66772 9.01003 6.4462C8.94357 6.29114 8.78851 6.20253 8.61129 6.20253C8.53745 6.20253 8.46361 6.2173 8.38977 6.24684ZM0.747369 6.57911C0.614458 6.66772 0.548002 6.84494 0.63661 6.97785C0.703066 7.11076 0.88028 7.17721 1.01319 7.08861C1.16825 7.02215 1.21256 6.84494 1.1461 6.71203C1.07965 6.60127 0.99104 6.55696 0.88028 6.55696C0.835977 6.55696 0.791673 6.56435 0.747369 6.57911ZM7.59231 7.31013C7.34864 7.46519 7.26003 7.77532 7.39294 8.01899C7.52585 8.26266 7.83598 8.37342 8.1018 8.21835C8.34547 8.08544 8.43408 7.77532 8.30117 7.53164C8.21256 7.35443 8.03534 7.26582 7.83598 7.26582C7.76214 7.26582 7.68091 7.28059 7.59231 7.31013ZM1.54484 7.62025C1.36762 7.70886 1.32332 7.90823 1.41193 8.08544C1.50053 8.24051 1.6999 8.30696 1.87712 8.21835C2.03218 8.12975 2.09863 7.93038 2.01003 7.75316C1.94357 7.6424 1.83281 7.57595 1.6999 7.57595C1.6556 7.57595 1.60391 7.59072 1.54484 7.62025ZM6.48471 8.08544C6.19674 8.24051 6.08598 8.59494 6.24104 8.88291C6.3961 9.14873 6.75053 9.25949 7.03851 9.10443C7.32648 8.94937 7.43724 8.59494 7.28218 8.32911C7.17142 8.12975 6.97205 8.01899 6.77268 8.01899C6.66931 8.01899 6.57332 8.04114 6.48471 8.08544ZM2.63028 8.32911C2.43091 8.43987 2.36446 8.68354 2.47522 8.88291C2.56382 9.08228 2.82965 9.14873 3.00686 9.03797C3.20623 8.92721 3.27269 8.68354 3.18408 8.50633C3.09547 8.37342 2.96256 8.28481 2.82965 8.28481C2.75581 8.28481 2.68935 8.29958 2.63028 8.32911ZM5.2442 8.59494C4.97838 8.72785 4.88977 9.03797 5.02268 9.3038C5.1556 9.54747 5.46572 9.63608 5.73155 9.50316C5.97522 9.37025 6.06382 9.06013 5.93091 8.7943C5.84231 8.63924 5.66509 8.52848 5.48788 8.52848C5.39927 8.52848 5.31804 8.55063 5.2442 8.59494ZM3.91509 8.68354C3.67142 8.7943 3.60496 9.08228 3.71572 9.3038C3.84864 9.52532 4.11446 9.61392 4.33598 9.48101C4.57965 9.37025 4.6461 9.08228 4.53534 8.86076C4.44674 8.7057 4.29167 8.61709 4.11446 8.61709C4.04062 8.61709 3.97416 8.63924 3.91509 8.68354Z" fill="url(#paint0_linear_8093_96776)"/>
</g>
<defs>
<linearGradient id="paint0_linear_8093_96776" x1="8.77101" y1="2.58291" x2="0.629534" y2="6.97787" gradientUnits="userSpaceOnUse">
<stop stop-color="#F99D1C"/>
<stop offset="0.5" stop-color="#F37021"/>
<stop offset="1" stop-color="#F99D1C"/>
</linearGradient>
</defs>
</svg>
