<svg preserveAspectRatio="none" width="100%" height="100%" overflow="visible" style="display: block;" viewBox="0 0 29.7943 28" fill="none" xmlns="http://www.w3.org/2000/svg">
<g id="g2524">
<path id="path2534" d="M14.8861 1.1962C14.5538 1.1962 14.288 0.93038 14.288 0.598101C14.288 0.265823 14.5538 0 14.8861 0C15.2184 0 15.5063 0.265823 15.5063 0.598101C15.5063 0.93038 15.2184 1.1962 14.8861 1.1962ZM17.7437 0.886076C17.6551 1.24051 17.8544 1.59494 18.1867 1.68354C18.5411 1.77215 18.8956 1.57278 18.9842 1.21835C19.0728 0.886076 18.8734 0.531646 18.519 0.443038C18.4747 0.42827 18.423 0.420886 18.3639 0.420886C18.0759 0.420886 17.8101 0.598101 17.7437 0.886076ZM11.2532 0.443038C10.9209 0.531646 10.6994 0.886076 10.8101 1.21835C10.8987 1.57278 11.2532 1.77215 11.5854 1.68354C11.9399 1.59494 12.1392 1.24051 12.0506 0.886076C11.9842 0.598101 11.7184 0.420886 11.4304 0.420886C11.3713 0.420886 11.3122 0.42827 11.2532 0.443038ZM20.7785 2.21519C20.6899 2.65823 20.9778 3.10127 21.4209 3.21203C21.8639 3.30063 22.307 3.01266 22.3956 2.56962C22.5063 2.12658 22.2184 1.68354 21.7753 1.59494C21.7162 1.58017 21.6572 1.57278 21.5981 1.57278C21.1994 1.57278 20.8671 1.83861 20.7785 2.21519ZM8.01899 1.59494C7.57595 1.68354 7.28797 2.12658 7.37658 2.56962C7.48734 3.01266 7.93038 3.30063 8.37342 3.21203C8.81646 3.10127 9.10443 2.65823 9.01582 2.21519C8.92721 1.83861 8.57278 1.57278 8.1962 1.57278C8.13713 1.57278 8.07806 1.58017 8.01899 1.59494ZM5.27215 3.5443C4.71835 3.61076 4.34177 4.12025 4.43038 4.67405C4.51899 5.22785 5.02848 5.60443 5.58228 5.51582C6.13608 5.42721 6.49051 4.91772 6.42405 4.36392C6.33544 3.87658 5.91456 3.52215 5.42721 3.52215C5.36814 3.52215 5.31646 3.52954 5.27215 3.5443ZM23.3703 4.36392C23.2816 4.91772 23.6582 5.42721 24.212 5.51582C24.7658 5.60443 25.2753 5.22785 25.3639 4.67405C25.4525 4.1424 25.0759 3.63291 24.5222 3.5443C24.4778 3.52954 24.4262 3.52215 24.3671 3.52215C23.8797 3.52215 23.4589 3.87658 23.3703 4.36392ZM25.2532 7.17722C25.1867 7.86392 25.674 8.46202 26.3608 8.55063C27.0475 8.61709 27.6677 8.10759 27.7342 7.42089C27.8006 6.73418 27.3133 6.13608 26.6266 6.04747C26.5823 6.04747 26.538 6.04747 26.4937 6.04747C25.8734 6.04747 25.3196 6.53481 25.2532 7.17722ZM3.16772 6.04747C2.48101 6.13608 1.97152 6.73418 2.06013 7.42089C2.12658 8.10759 2.74684 8.61709 3.43354 8.55063C4.12025 8.46202 4.60759 7.86392 4.54114 7.17722C4.47468 6.53481 3.92089 6.04747 3.30063 6.04747C3.25633 6.04747 3.21203 6.04747 3.16772 6.04747ZM26.4715 10.4557C26.4272 11.2089 27.0032 11.8734 27.7563 11.8956C28.5316 11.9399 29.174 11.3639 29.2184 10.6108C29.2627 9.83544 28.6646 9.19304 27.9114 9.14873C27.8819 9.14873 27.8597 9.14873 27.8449 9.14873C27.1139 9.14873 26.4937 9.72468 26.4715 10.4557ZM1.88291 9.14873C1.12975 9.19304 0.531646 9.83544 0.575949 10.6108C0.620253 11.3639 1.26266 11.9399 2.01582 11.8956C2.79114 11.8734 3.36709 11.2089 3.32278 10.4557C3.30063 9.72468 2.68038 9.14873 1.94937 9.14873C1.9346 9.14873 1.91245 9.14873 1.88291 9.14873ZM28.288 15.5063C27.4684 15.5063 26.7816 14.8196 26.7816 14C26.7816 13.1582 27.4684 12.4937 28.288 12.4937C29.1297 12.4937 29.7943 13.1582 29.7943 14C29.7943 14.8196 29.1297 15.5063 28.288 15.5063ZM1.50633 15.5063C0.664557 15.5063 0 14.8196 0 14C0 13.1582 0.664557 12.4937 1.50633 12.4937C2.32595 12.4937 2.99051 13.1582 2.99051 14C2.99051 14.8196 2.32595 15.5063 1.50633 15.5063ZM27.7563 16.0823C27.0032 16.1266 26.4272 16.769 26.4715 17.5443C26.4937 18.2975 27.1582 18.8734 27.9114 18.8291C28.6646 18.807 29.2627 18.1646 29.2184 17.3892C29.174 16.6582 28.5759 16.0823 27.8449 16.0823C27.8154 16.0823 27.7859 16.0823 27.7563 16.0823ZM0.575949 17.3892C0.531646 18.1646 1.12975 18.807 1.88291 18.8291C2.63608 18.8734 3.27848 18.2975 3.32278 17.5443C3.36709 16.769 2.79114 16.1266 2.01582 16.0823C2.00105 16.0823 1.9789 16.0823 1.94937 16.0823C1.21835 16.0823 0.620253 16.6582 0.575949 17.3892ZM26.3608 19.4494C25.674 19.5158 25.1867 20.1361 25.2532 20.8228C25.3196 21.5095 25.9399 22.019 26.6266 21.9304C27.3133 21.8639 27.8006 21.2437 27.7342 20.557C27.6677 19.9146 27.1361 19.4494 26.4937 19.4494C26.4494 19.4494 26.4051 19.4494 26.3608 19.4494ZM2.06013 20.557C1.97152 21.2437 2.48101 21.8639 3.16772 21.9304C3.85443 22.019 4.47468 21.5095 4.54114 20.8228C4.60759 20.1361 4.12025 19.5158 3.43354 19.4494C3.38924 19.4494 3.34494 19.4494 3.30063 19.4494C2.65823 19.4494 2.12658 19.9146 2.06013 20.557ZM24.212 22.4842C23.6582 22.5728 23.2816 23.0823 23.3703 23.6361C23.4589 24.1677 23.9684 24.5443 24.5222 24.4557C25.0759 24.3671 25.4525 23.8576 25.3639 23.3038C25.2753 22.8165 24.8544 22.462 24.3671 22.462C24.3228 22.462 24.2711 22.4694 24.212 22.4842ZM4.43038 23.3038C4.34177 23.8576 4.71835 24.3671 5.27215 24.4557C5.8038 24.5443 6.33544 24.1677 6.42405 23.6361C6.49051 23.0823 6.13608 22.5728 5.58228 22.4842C5.52321 22.4694 5.47152 22.462 5.42721 22.462C4.93987 22.462 4.51899 22.8165 4.43038 23.3038ZM21.4209 24.788C20.9778 24.8766 20.6899 25.3196 20.7785 25.7627C20.8892 26.2278 21.3101 26.5158 21.7753 26.4051C22.2184 26.3165 22.5063 25.8734 22.3956 25.4304C22.3291 25.0316 21.9747 24.7658 21.5981 24.7658C21.539 24.7658 21.48 24.7732 21.4209 24.788ZM7.37658 25.4304C7.28797 25.8734 7.57595 26.3165 8.01899 26.4051C8.46203 26.5158 8.90506 26.2278 9.01582 25.7627C9.10443 25.3196 8.81646 24.8766 8.37342 24.788C8.31435 24.7732 8.25527 24.7658 8.1962 24.7658C7.81962 24.7658 7.46519 25.0316 7.37658 25.4304ZM18.1867 26.3165C17.8544 26.4051 17.6551 26.7595 17.7437 27.1139C17.8323 27.4462 18.1867 27.6456 18.519 27.557C18.8734 27.4684 19.0728 27.1139 18.9842 26.7595C18.9177 26.4715 18.6519 26.2943 18.3639 26.2943C18.3049 26.2943 18.2458 26.3017 18.1867 26.3165ZM10.8101 26.7595C10.7215 27.1139 10.9209 27.4684 11.2532 27.557C11.6076 27.6456 11.962 27.4462 12.0506 27.1139C12.1392 26.7595 11.9399 26.4051 11.5854 26.3165C11.5411 26.3017 11.4895 26.2943 11.4304 26.2943C11.1424 26.2943 10.8766 26.4715 10.8101 26.7595ZM14.8861 28C14.5538 28 14.288 27.7342 14.288 27.4019C14.288 27.0696 14.5538 26.7816 14.8861 26.7816C15.2184 26.7816 15.5063 27.0696 15.5063 27.4019C15.5063 27.7342 15.2184 28 14.8861 28Z" fill="url(#paint0_linear_8093_96746)"/>
</g>
<defs>
<linearGradient id="paint0_linear_8093_96746" x1="14.8949" y1="27.994" x2="14.8949" y2="-0.000221922" gradientUnits="userSpaceOnUse">
<stop stop-color="#F99D1C"/>
<stop offset="0.5" stop-color="#F37021"/>
<stop offset="1" stop-color="#F99D1C"/>
</linearGradient>
</defs>
</svg>
