<svg preserveAspectRatio="none" width="100%" height="100%" overflow="visible" style="display: block;" viewBox="0 0 28 28" fill="none" xmlns="http://www.w3.org/2000/svg">
<g id="News WP" clip-path="url(#clip0_8093_96743)">
<path id="Vector" d="M28 17.927V8.0757L25.4473 5.7447L22.617 8.74187V6.60337H22.2005V9.21204L21.5343 9.9062V7.6872L19.425 5.7447L16.9003 8.32537L17.2048 8.62987L17.843 7.9917L18.648 8.71387V11.1557H18.5091C17.2888 11.1557 16.5386 11.9887 16.5386 13.1262C16.5386 13.7095 16.6226 13.986 16.7055 14.1809H16.9831C17.0375 13.9051 17.1866 13.6571 17.4046 13.4796C17.6225 13.3022 17.8956 13.2064 18.1766 13.209H18.648V17.6214C17.178 18.1207 16.317 19.397 16.1513 21.1447L16.345 21.2567C17.01 20.4517 17.871 19.9524 18.648 19.7587V25.8359L18.704 25.8627L21.3406 23.4489L22.589 24.6155L22.6438 24.5864V19.8695C23.1991 20.0352 23.6985 20.4237 24.059 20.9242L28 17.927ZM25.1696 18.5372C24.5035 17.8722 23.6996 17.5105 22.6438 17.3717V9.15837L23.8373 7.88087L25.1696 9.10237V18.5372ZM22.2005 23.6705L21.5343 23.0604V10.2959L22.1993 9.6297L22.2005 23.6705ZM15.4571 16.6507V8.21337L12.9033 5.7167L10.2666 8.4642L7.46548 5.7167L4.80081 8.51904V7.6032C4.80081 5.24537 3.33081 5.63387 3.33081 4.1067C3.33081 3.13604 3.94098 2.66354 4.68998 2.30304L4.52315 2.13737C2.24815 2.94237 1.02665 4.1347 1.02665 5.43904C1.02665 6.6057 1.91448 6.66054 1.91448 8.0197V11.4882C0.249646 11.4882 -2.03451e-05 13.0434 -2.03451e-05 13.6535C-2.03451e-05 14.014 0.0559797 14.3465 0.110813 14.5134H0.33248C0.41648 14.042 0.694146 13.7084 1.27748 13.7084H1.91448V18.1487L5.18931 20.979L7.60431 18.2607L10.766 20.979L15.4571 16.6507ZM12.5988 18.8429L10.3506 16.9272V9.01837L11.3225 8.0477L12.5988 9.32404V18.8429ZM7.43748 17.7882L6.74331 18.5932L4.80081 16.9272V9.10237L5.85548 8.0197L7.43748 9.6017V17.7882Z" fill="var(--fill-0, black)"/>
</g>
<defs>
<clipPath id="clip0_8093_96743">
<rect width="28" height="28" fill="white"/>
</clipPath>
</defs>
</svg>
