<svg preserveAspectRatio="none" width="100%" height="100%" overflow="visible" style="display: block;" viewBox="0 0 102.662 23.5547" fill="none" xmlns="http://www.w3.org/2000/svg">
<path id="Beacon" d="M43.2266 6.46875C46.9601 6.46875 49.7686 8.20762 49.7686 12.0117V20.5713C49.7687 21.7844 50.2314 22.5048 51.2559 22.833V23.2275H46.8604C46.1342 23.2274 45.9033 22.9972 45.9033 22.21V21.1611C44.9121 22.7681 43.4245 23.5547 41.1123 23.5547C37.8112 23.5547 35.3874 22.0384 35.043 19.5781C33.5171 22.2286 31.2095 23.5547 28.0967 23.5547C23.075 23.5545 19.4075 19.9407 19.4072 14.9795C19.4072 10.0179 23.141 6.46878 28.5596 6.46875C32.1275 6.46875 34.6062 7.88152 34.6064 10.2471C34.6064 12.0539 33.1524 14.0587 27.6348 15.7012L23.7686 16.8516C24.495 20.203 26.6106 22.3388 29.5508 22.3389V22.3398C31.8745 22.3398 33.8075 20.8837 35.0146 18.5674C35.408 13.0143 44.1585 14.8031 45.8701 10.7314C45.7047 8.30489 44.6477 6.96094 42.8633 6.96094C40.815 6.96104 39.361 9.05961 38.8984 11.8799L36.0566 10.6992C37.5764 7.8466 39.9223 6.46878 43.2266 6.46875ZM60.1465 6.46875C63.2383 6.46875 65.5171 7.75032 66.8184 10.1816L63.9873 11.5283H63.9219C63.2054 8.44011 61.969 6.96094 60.1143 6.96094C57.6083 6.96121 55.7209 10.1809 55.7207 14.0576C55.7207 19.3148 57.8684 22.5352 61.6768 22.5352C63.8572 22.5351 65.6795 21.0561 66.5908 18.7568L67.0137 18.8887C65.9723 21.9444 63.4661 23.5547 60.1465 23.5547C55.037 23.5546 51.5879 20.137 51.5879 14.9131C51.5881 9.98496 55.135 6.46882 60.1465 6.46875ZM75.627 6.63477C80.8488 6.63477 84.2528 9.92723 84.2529 15.0459C84.2529 20.1647 80.8489 23.5547 75.627 23.5547C70.4052 23.5545 67.002 20.1967 67.002 15.0459C67.0021 9.89525 70.4062 6.63494 75.627 6.63477ZM5.34473 8.36719C6.89566 6.95068 8.54538 6.25879 10.4258 6.25879C14.7148 6.25897 17.915 9.78377 17.915 14.8232C17.9149 20.2258 13.9555 23.3877 8.80859 23.3877C6.10388 23.3876 4.88329 22.1046 3.2002 22.1045C2.54039 22.1045 1.9795 22.4996 1.97949 23.0596H1.48438V3.09766C1.48438 2.4721 1.18733 2.14163 0.725586 2.1416C0.49427 2.1416 0.263752 2.17539 0 2.30664V1.91113L4.94922 0H5.34473V8.36719ZM95.4287 6.46875C99.2427 6.46879 101.182 8.76905 101.182 13.2363V20.6279C101.182 21.7443 101.609 22.5326 102.662 22.8281V23.2227H95.8887V22.8281C96.9082 22.5326 97.3359 21.7775 97.3359 20.6934V12.8096C97.3359 9.4589 96.2505 7.71781 94.1133 7.71777C92.4697 7.71777 91.351 8.43998 89.5762 10.5752V20.6279C89.5763 21.7441 90.0033 22.5325 91.0225 22.8281V23.2227H84.25V22.8281C85.3017 22.5326 85.7294 21.7442 85.7295 20.6279V9.7207C85.7294 9.16224 85.4993 8.90039 85.0723 8.90039C84.8422 8.90043 84.5789 8.96563 84.251 9.09668V8.70215L89.1172 6.79688H89.5771V9.68652C91.3193 7.55242 93.2597 6.46875 95.4287 6.46875ZM75.627 7.15625C72.9169 7.15659 71.1993 10.4168 71.1992 15.0449C71.1992 19.6733 72.9177 23.0319 75.627 23.0322C78.3373 23.0322 80.0557 19.7394 80.0557 15.0449C80.0556 10.3506 78.3372 7.15625 75.627 7.15625ZM45.9033 11.75C44.4161 14.5372 39.0635 13.456 39.0635 18.998C39.0635 21.2605 40.4175 22.7685 42.2354 22.7686C43.8545 22.7686 45.0441 22.0144 45.9033 20.1123V11.75ZM8.94043 7.44434C7.62082 7.44434 6.59764 7.93923 5.34375 9.22363V19.3037C5.34383 21.3457 6.69748 22.7617 8.64355 22.7617C11.6453 22.7615 13.7235 20.1924 13.7236 15.1201C13.7236 10.0474 12.107 7.44443 8.94043 7.44434ZM27.8652 6.99609C25.0899 6.99643 23.4708 9.88716 23.4707 14.1582C23.4707 14.9137 23.5371 15.6372 23.6689 16.3271H23.6699L26.1807 15.4395C29.2201 14.3549 30.5088 12.3514 30.5088 10.248C30.5087 8.47362 29.5169 6.99609 27.8652 6.99609Z" fill="#39503D"/>
</svg>
