<svg width="24" height="24" viewBox="0 0 24 24" fill="none" xmlns="http://www.w3.org/2000/svg">
<path d="M3 4L3 18.8H9L12 21.8L15 18.8H21V4H3Z" stroke="#141810" stroke-miterlimit="10"/>
<path d="M12 13.6494C12.4141 13.6494 12.7499 13.9853 12.75 14.3994V14.4746C12.7499 14.8887 12.4141 15.2246 12 15.2246C11.5859 15.2246 11.2501 14.8887 11.25 14.4746V14.3994C11.2501 13.9853 11.5859 13.6494 12 13.6494ZM12 7.5C12.3106 7.5 12.5624 7.75195 12.5625 8.0625V12C12.5625 12.3107 12.3107 12.5625 12 12.5625C11.6893 12.5625 11.4375 12.3107 11.4375 12V8.0625C11.4376 7.75195 11.6894 7.5 12 7.5Z" fill="#141810"/>
</svg>
