<svg width="24" height="24" viewBox="0 0 24 24" fill="none" xmlns="http://www.w3.org/2000/svg">
<g clip-path="url(#clip0_1022_377)">
<path d="M16.1528 14.022C18.7707 14.262 20.8195 16.4615 20.8198 19.1422H18.2485C18.2483 17.1774 17.454 15.3834 16.1528 14.022ZM15.6772 6.28571C17.0972 6.28586 18.2485 7.43699 18.2485 8.85699C18.2485 10.2771 17.0973 11.4281 15.6772 11.4283C15.3807 11.4283 15.0966 11.3752 14.8315 11.2828C15.253 10.5614 15.4976 9.73854 15.4976 8.85699C15.4975 7.97755 15.2602 7.15008 14.8433 6.42633C15.1049 6.33661 15.3852 6.28571 15.6772 6.28571Z" fill="#141810"/>
<path d="M4.83887 19.1429C4.83887 16.3014 7.1403 14 9.98172 14C12.8232 14 15.1246 16.3014 15.1246 19.1429" stroke="#141810" stroke-width="1.3" stroke-miterlimit="10"/>
<path d="M9.98158 11.4286C11.4017 11.4286 12.553 10.2773 12.553 8.85713C12.553 7.43697 11.4017 6.28571 9.98158 6.28571C8.56142 6.28571 7.41016 7.43697 7.41016 8.85713C7.41016 10.2773 8.56142 11.4286 9.98158 11.4286Z" stroke="#141810" stroke-width="1.3" stroke-miterlimit="10"/>
</g>
<defs>
<clipPath id="clip0_1022_377">
<rect width="18" height="14.1429" fill="white" transform="translate(3 5)"/>
</clipPath>
</defs>
</svg>
