<svg width="24" height="24" viewBox="0 0 24 24" fill="none" xmlns="http://www.w3.org/2000/svg">
<path d="M3 3.5L3 18.3H9L12 21.3L15 18.3H21V3.5H3Z" stroke="black" stroke-miterlimit="10"/>
<path d="M11.74 12.4655V12.0255C11.73 11.7755 11.76 11.5455 11.83 11.3455C11.9 11.1455 12.02 10.9555 12.18 10.7955C12.34 10.6355 12.55 10.4655 12.8 10.3155C13.02 10.1755 13.2 10.0455 13.34 9.92551C13.48 9.80551 13.57 9.66551 13.63 9.52551C13.69 9.38551 13.72 9.21551 13.72 9.02551C13.72 8.80551 13.67 8.61551 13.56 8.44551C13.45 8.27551 13.31 8.15551 13.12 8.05551C12.93 7.95551 12.71 7.91551 12.47 7.91551C12.23 7.91551 11.99 7.96551 11.8 8.06551C11.61 8.16551 11.46 8.29551 11.35 8.46551C11.24 8.63551 11.18 8.83551 11.16 9.06551V9.11551H10V9.05551C10.03 8.65551 10.14 8.28551 10.33 7.96551C10.52 7.64551 10.81 7.37551 11.17 7.18551C11.53 6.99551 11.99 6.89551 12.52 6.89551C13.01 6.89551 13.45 6.98551 13.82 7.16551C14.19 7.34551 14.48 7.58551 14.68 7.89551C14.88 8.20551 14.99 8.55551 14.99 8.95551C14.99 9.25551 14.94 9.51551 14.85 9.74551C14.76 9.97551 14.62 10.1855 14.45 10.3655C14.28 10.5455 14.06 10.7155 13.81 10.8655C13.57 11.0055 13.39 11.1355 13.25 11.2655C13.11 11.3955 13.02 11.5255 12.97 11.6655C12.92 11.8055 12.89 11.9655 12.89 12.1555V12.4655H11.73H11.74ZM12.34 15.0655C12.13 15.0655 11.96 14.9955 11.82 14.8555C11.68 14.7155 11.61 14.5455 11.61 14.3355C11.61 14.1255 11.68 13.9555 11.82 13.8155C11.96 13.6755 12.14 13.6055 12.34 13.6055C12.54 13.6055 12.72 13.6755 12.86 13.8155C13 13.9555 13.07 14.1255 13.07 14.3355C13.07 14.5455 13 14.7155 12.86 14.8555C12.72 14.9955 12.54 15.0655 12.34 15.0655Z" fill="black"/>
</svg>
