<svg width="24" height="24" viewBox="0 0 24 24" fill="none" xmlns="http://www.w3.org/2000/svg">
<path d="M11.7475 20.2739C16.4565 20.2739 20.2738 16.4566 20.2738 11.7476C20.2738 7.03867 16.4565 3.22131 11.7475 3.22131C7.03855 3.22131 3.22119 7.03867 3.22119 11.7476C3.22119 16.4566 7.03855 20.2739 11.7475 20.2739Z" stroke="black" stroke-linejoin="round"/>
<path d="M11.7475 20.2739C14.0758 20.2739 15.9633 16.4566 15.9633 11.7476C15.9633 7.03867 14.0758 3.22131 11.7475 3.22131C9.41921 3.22131 7.53174 7.03867 7.53174 11.7476C7.53174 16.4566 9.41921 20.2739 11.7475 20.2739Z" stroke="black" stroke-linejoin="round"/>
<path d="M3.22119 11.7477H20.2738" stroke="black" stroke-linejoin="round"/>
<path d="M4.21582 7.4751H19.279" stroke="black" stroke-linejoin="round"/>
<path d="M4.21582 16.0203H19.279" stroke="black" stroke-linejoin="round"/>
</svg>
