<svg width="24" height="24" viewBox="0 0 24 24" fill="none" xmlns="http://www.w3.org/2000/svg">
<g clip-path="url(#clip0_2517_8789)">
<mask id="mask0_2517_8789" style="mask-type:luminance" maskUnits="userSpaceOnUse" x="0" y="0" width="24" height="24">
<path d="M24 0H0V24H24V0Z" fill="white"/>
</mask>
<g mask="url(#mask0_2517_8789)">
<path d="M8.96973 22H14.9698C19.9698 22 21.9698 20 21.9698 15V9C21.9698 4 19.9698 2 14.9698 2H8.96973C3.96973 2 1.96973 4 1.96973 9V15C1.96973 20 3.96973 22 8.96973 22Z" stroke="#141810" stroke-linecap="round" stroke-linejoin="round"/>
<path d="M1.96973 12.7001L7.96973 12.6801C8.71973 12.6801 9.55973 13.2501 9.83973 13.9501L10.9798 16.8301C11.2398 17.4801 11.6498 17.4801 11.9098 16.8301L14.1998 11.0201C14.4198 10.4601 14.8298 10.4401 15.1098 10.9701L16.1498 12.9401C16.4598 13.5301 17.2598 14.0101 17.9198 14.0101H21.9798" stroke="#141810" stroke-linecap="round" stroke-linejoin="round"/>
</g>
</g>
<defs>
<clipPath id="clip0_2517_8789">
<rect width="24" height="24" fill="white"/>
</clipPath>
</defs>
</svg>
