<svg width="24" height="25" viewBox="0 0 24 25" fill="none" xmlns="http://www.w3.org/2000/svg">
<path d="M15.8486 13.882C19.1142 13.882 21.7503 16.518 21.7503 19.7836" stroke="black" stroke-width="1.3" stroke-miterlimit="10"/>
<path d="M15.8486 5.02942C17.4749 5.02942 18.7995 6.35401 18.7995 7.98024C18.7995 9.60647 17.4749 10.9311 15.8486 10.9311" stroke="black" stroke-width="1.3" stroke-miterlimit="10"/>
<path d="M3.06201 19.7836C3.06201 16.518 5.69808 13.882 8.96365 13.882C12.2292 13.882 14.8653 16.518 14.8653 19.7836" stroke="black" stroke-width="1.3" stroke-miterlimit="10"/>
<path d="M8.96352 10.9311C10.5932 10.9311 11.9143 9.60993 11.9143 7.98024C11.9143 6.35055 10.5932 5.02942 8.96352 5.02942C7.33382 5.02942 6.0127 6.35055 6.0127 7.98024C6.0127 9.60993 7.33382 10.9311 8.96352 10.9311Z" stroke="black" stroke-width="1.3" stroke-miterlimit="10"/>
</svg>
