<svg width="24" height="24" viewBox="0 0 24 24" fill="none" xmlns="http://www.w3.org/2000/svg">
<g clip-path="url(#clip0_2517_8791)">
<path d="M12.375 20.847C17.3456 20.847 21.375 16.8176 21.375 11.847C21.375 6.87648 17.3456 2.84705 12.375 2.84705C7.40444 2.84705 3.375 6.87648 3.375 11.847C3.375 16.8176 7.40444 20.847 12.375 20.847Z" stroke="#141810" stroke-miterlimit="10"/>
<path d="M8.375 16.847C8.375 14.637 10.165 12.847 12.375 12.847C14.585 12.847 16.375 14.637 16.375 16.847" stroke="#141810" stroke-miterlimit="10" stroke-linecap="round"/>
<path d="M12.375 10.847C13.4796 10.847 14.375 9.95162 14.375 8.84705C14.375 7.74248 13.4796 6.84705 12.375 6.84705C11.2704 6.84705 10.375 7.74248 10.375 8.84705C10.375 9.95162 11.2704 10.847 12.375 10.847Z" stroke="#141810" stroke-miterlimit="10"/>
</g>
<defs>
<clipPath id="clip0_2517_8791">
<rect width="19" height="19" fill="white" transform="translate(2.875 2.34705)"/>
</clipPath>
</defs>
</svg>
