<svg width="24" height="24" viewBox="0 0 24 24" fill="none" xmlns="http://www.w3.org/2000/svg">
<path d="M12 21C16.9706 21 21 16.9706 21 12C21 7.02944 16.9706 3 12 3C7.02945 3 3 7.02944 3 12C3 16.9706 7.02945 21 12 21Z" stroke="#141810" stroke-miterlimit="10"/>
<path d="M13.647 8.93093C14.061 8.21993 15.078 7.24793 16.122 7.14893" stroke="#141810" stroke-miterlimit="10" stroke-linecap="round"/>
<path d="M10.3441 8.93093C9.93013 8.21993 8.91314 7.24793 7.86914 7.14893" stroke="#141810" stroke-miterlimit="10" stroke-linecap="round"/>
<path d="M7.5 15.978C8.697 14.898 10.263 14.241 12 14.241C13.737 14.241 15.303 14.898 16.5 15.978" stroke="#141810" stroke-miterlimit="10" stroke-linecap="round"/>
<path d="M9.70479 10.9561C9.34479 11.2711 8.8138 11.4691 8.2108 11.4691C7.6078 11.4691 7.0768 11.2711 6.7168 10.9561" stroke="#141810" stroke-miterlimit="10" stroke-linecap="round"/>
<path d="M17.2829 10.9561C16.9229 11.2711 16.3919 11.4691 15.7889 11.4691C15.1859 11.4691 14.6549 11.2711 14.2949 10.9561" stroke="#141810" stroke-miterlimit="10" stroke-linecap="round"/>
</svg>
