<svg width="24" height="24" viewBox="0 0 24 24" fill="none" xmlns="http://www.w3.org/2000/svg">
<g clip-path="url(#clip0_7895_87444)">
<path d="M15.7745 15.467C15.7745 16.5946 14.1809 16.2871 12.2144 16.2871C10.248 16.2871 8.6543 16.604 8.6543 15.467C8.6543 14.33 10.248 13.4166 12.2144 13.4166C14.1809 13.4166 15.7745 14.33 15.7745 15.467Z" stroke="#141810" stroke-miterlimit="10"/>
<path d="M8.48665 11.7857C9.00136 11.7857 9.41862 11.3684 9.41862 10.8537C9.41862 10.339 9.00136 9.92175 8.48665 9.92175C7.97194 9.92175 7.55469 10.339 7.55469 10.8537C7.55469 11.3684 7.97194 11.7857 8.48665 11.7857Z" fill="#141810"/>
<path d="M15.9422 11.7857C16.4569 11.7857 16.8742 11.3684 16.8742 10.8537C16.8742 10.339 16.4569 9.92175 15.9422 9.92175C15.4275 9.92175 15.0103 10.339 15.0103 10.8537C15.0103 11.3684 15.4275 11.7857 15.9422 11.7857Z" fill="#141810"/>
<path d="M3.34241 14.6467C3.0535 13.7427 2.88574 12.7828 2.88574 11.7856C2.89506 6.64115 7.06095 2.46594 12.2147 2.46594C17.3685 2.46594 21.5344 6.64115 21.5344 11.7856C21.5344 16.9301 17.3592 21.1053 12.2147 21.1053C9.83821 21.1053 7.67605 20.2106 6.02647 18.7474" stroke="#141810" stroke-miterlimit="10" stroke-linecap="round"/>
<path d="M3.34187 14.6467C2.86657 15.4203 2.46582 16.2311 2.46582 16.7716C2.46582 18.0577 3.50962 19.1015 4.79574 19.1015C5.2524 19.1015 5.67179 18.9711 6.02593 18.7474" stroke="#141810" stroke-miterlimit="10" stroke-linecap="round"/>
<path d="M3.3418 14.6467C4.00349 13.5656 4.79566 12.5778 4.79566 12.5778C4.79566 12.5778 7.12558 15.4855 7.12558 16.7716C7.12558 17.6011 6.68756 18.328 6.02586 18.7474" stroke="#141810" stroke-miterlimit="10" stroke-linecap="round"/>
<path d="M5.77441 9.43709C6.6225 9.33458 7.95522 8.75676 8.47712 7.80615" stroke="#141810" stroke-miterlimit="10" stroke-linecap="round"/>
<path d="M18.4215 9.43709C17.5734 9.33458 16.2407 8.75676 15.7188 7.80615" stroke="#141810" stroke-miterlimit="10" stroke-linecap="round"/>
</g>
<defs>
<clipPath id="clip0_7895_87444">
<rect width="20" height="20" fill="white" transform="translate(2 2)"/>
</clipPath>
</defs>
</svg>
