<svg width="24" height="24" viewBox="0 0 24 24" fill="none" xmlns="http://www.w3.org/2000/svg">
<g clip-path="url(#clip0_7895_87443)">
<path d="M8.39103 10.171C8.88933 10.171 9.29328 9.76803 9.29328 9.27097C9.29328 8.77392 8.88933 8.37097 8.39103 8.37097C7.89272 8.37097 7.48877 8.77392 7.48877 9.27097C7.48877 9.76803 7.89272 10.171 8.39103 10.171Z" fill="#141810"/>
<path d="M13.8046 10.171C14.3029 10.171 14.7069 9.76803 14.7069 9.27097C14.7069 8.77392 14.3029 8.37097 13.8046 8.37097C13.3063 8.37097 12.9023 8.77392 12.9023 9.27097C12.9023 9.76803 13.3063 10.171 13.8046 10.171Z" fill="#141810"/>
<path d="M12.6499 6.99394C13.4258 6.71494 14.8334 6.62494 15.6995 7.22794" stroke="#141810" stroke-miterlimit="10" stroke-linecap="round"/>
<path d="M9.70801 12.8171C11.1516 12.5651 13.6418 12.8531 14.9682 14.1581" stroke="#141810" stroke-miterlimit="10" stroke-linecap="round"/>
<path d="M9.93367 6.36401C9.22089 5.95001 7.84946 5.62601 6.89307 6.06701" stroke="#141810" stroke-miterlimit="10" stroke-linecap="round"/>
<path d="M10.3039 19.909C10.8542 20.017 11.4227 20.071 12.0001 20.071C16.9805 20.071 21.0227 16.039 21.0227 11.071C21.0227 6.10304 16.9805 2.07104 12.0001 2.07104C7.01964 2.07104 2.97754 6.10304 2.97754 11.071C2.97754 13.123 3.67228 15.004 4.82716 16.516" stroke="#141810" stroke-miterlimit="10" stroke-linecap="round"/>
<path d="M4.82703 16.5161C4.69169 17.5511 4.79996 18.7931 4.89019 19.3061C5.02553 20.1161 5.78342 20.8541 6.31575 21.0791C6.88417 21.3221 9.69921 21.3041 10.2225 20.4221C10.2947 20.2961 10.3127 20.1071 10.2947 19.9001" stroke="#141810" stroke-miterlimit="10" stroke-linecap="round"/>
<path d="M4.82666 16.5161C4.90786 15.9131 5.07027 15.3821 5.37704 15.0941C6.22516 14.3111 6.63117 16.8671 6.93794 16.8851C7.25373 16.9031 10.4928 15.3551 11.4492 15.4271C12.4056 15.4991 11.4492 17.2181 9.68982 17.9651C9.68982 17.9651 10.2312 19.1171 10.2853 19.9001" stroke="#141810" stroke-miterlimit="10" stroke-linecap="round"/>
</g>
<defs>
<clipPath id="clip0_7895_87443">
<rect width="20" height="21" fill="white" transform="translate(2 1)"/>
</clipPath>
</defs>
</svg>
