<svg width="24" height="24" viewBox="0 0 24 24" fill="none" xmlns="http://www.w3.org/2000/svg">
<path d="M12 21C16.9706 21 21 16.9706 21 12C21 7.02944 16.9706 3 12 3C7.02944 3 3 7.02944 3 12C3 16.9706 7.02944 21 12 21Z" stroke="#141810" stroke-miterlimit="10"/>
<path d="M8.4 10.2C8.89706 10.2 9.3 9.79708 9.3 9.30002C9.3 8.80297 8.89706 8.40002 8.4 8.40002C7.90294 8.40002 7.5 8.80297 7.5 9.30002C7.5 9.79708 7.90294 10.2 8.4 10.2Z" fill="#141810"/>
<path d="M11.9998 17.4C13.491 17.4 14.6998 16.1912 14.6998 14.7C14.6998 13.2088 13.491 12 11.9998 12C10.5086 12 9.2998 13.2088 9.2998 14.7C9.2998 16.1912 10.5086 17.4 11.9998 17.4Z" stroke="#141810" stroke-miterlimit="10"/>
<path d="M15.6002 10.2C16.0972 10.2 16.5002 9.79708 16.5002 9.30002C16.5002 8.80297 16.0972 8.40002 15.6002 8.40002C15.1031 8.40002 14.7002 8.80297 14.7002 9.30002C14.7002 9.79708 15.1031 10.2 15.6002 10.2Z" fill="#141810"/>
</svg>
