<svg width="24" height="24" viewBox="0 0 24 24" fill="none" xmlns="http://www.w3.org/2000/svg">
<path d="M7.5 10.686C7.5 9.63295 7.905 8.77795 8.4 8.77795C8.895 8.77795 9.3 9.63295 9.3 10.686" stroke="#141810" stroke-miterlimit="10" stroke-linecap="round"/>
<path d="M14.7002 10.686C14.7002 9.63295 15.1052 8.77795 15.6002 8.77795C16.0952 8.77795 16.5002 9.63295 16.5002 10.686" stroke="#141810" stroke-miterlimit="10" stroke-linecap="round"/>
<path d="M12 21C16.9706 21 21 16.9706 21 12C21 7.02944 16.9706 3 12 3C7.02944 3 3 7.02944 3 12C3 16.9706 7.02944 21 12 21Z" stroke="#141810" stroke-miterlimit="10"/>
<path d="M16.1311 13.782C15.4381 15.375 13.8541 16.5 12.0001 16.5C10.1461 16.5 8.56214 15.384 7.86914 13.782" stroke="#141810" stroke-miterlimit="10" stroke-linecap="round"/>
</svg>
